<svg xmlns="http://www.w3.org/2000/svg" xmlns:xlink="http://www.w3.org/1999/xlink" version="1.1" x="0px" y="0px" viewBox="0 0 750 500" style="enable-background:new 0 0 750 500;" xml:space="preserve">
<g id="BACKGROUND">
	<rect style="fill:'none';" />
</g>
<g id="OBJECTS">
	<g>
		<g>
			
				<ellipse transform="matrix(0.7071 -0.7071 0.7071 0.7071 -79.9934 169.3715)" style="fill:#EAE5DF;" cx="164.453" cy="181.246" rx="112.625" ry="112.625"/>
			<line style="fill:none;stroke:#000000;stroke-miterlimit:10;" x1="92.275" y1="249.641" x2="103" y2="292.363"/>
			<g>
				<g>
					<g>
						<g>
							<path style="fill:#7E7B44;" d="M143.274,165.771l-34.471,5.25c0,0-3.429,1.257-17.016,0.545         c-13.587-0.712-24.92,6.743-28.92,18.349c-1.493,4.332-4.426,11.752-7.482,19.52c3.783,14.68,10.457,28.196,19.37,39.917         c3.49,0.366,7.204,0.557,11.112,0.501c0,0,1.964,7.46,4.255,15.998c19.438,17.091,44.81,27.586,72.629,27.998         c12.704-3.854,25.45-10.996,25.45-10.996l-4-44.288c0,0,11.333-3.378,21.333-14.712c2.186-2.477-22-43.814-29-52.288         C169.533,163.092,143.274,165.771,143.274,165.771z"/>
							<g>
								
									<ellipse transform="matrix(0.581 -0.8139 0.8139 0.581 -121.7403 204.9088)" style="fill:#EFD79A;" cx="138.138" cy="220.689" rx="24.848" ry="24.848"/>
								<g>
									<g>
										<g>
											
												<line style="fill:none;stroke:#7E7B44;stroke-linecap:round;stroke-linejoin:round;stroke-miterlimit:10;" x1="130.568" y1="210.988" x2="132.044" y2="219.828"/>
											
												<line style="fill:none;stroke:#7E7B44;stroke-linecap:round;stroke-linejoin:round;stroke-miterlimit:10;" x1="142.145" y1="209.055" x2="143.621" y2="217.894"/>
										</g>
									</g>
									<path style="fill:none;stroke:#7E7B44;stroke-linecap:round;stroke-linejoin:round;stroke-miterlimit:10;" d="           M153.434,216.255c1.439,8.617-4.38,16.768-12.996,18.208c-8.617,1.439-16.768-4.38-18.207-12.996"/>
								</g>
							</g>
							
								<path style="fill:none;stroke:#514D27;stroke-width:0.75;stroke-linecap:round;stroke-linejoin:round;stroke-miterlimit:10;" d="         M104.872,171.603c0,0,15.929,15.918,30.561,12.049c12.613-3.335,10.101-18.059,10.101-18.059"/>
						</g>
						<g>
							<path style="fill:#FFB48C;" d="M101.373,141.711c0,0,6.491,9.31,7.429,29.31c0,0,14.093,11,24.033,9.5         s10.438-14.75,10.438-14.75s-7.234-9.343-8.633-23.172L101.373,141.711z"/>
							<path style="fill:#EF8D6F;" d="M126.241,154.271c4.842-0.76,7.853-2.493,9.73-4.35c-0.592-2.259-1.066-4.709-1.33-7.321         l-33.267-0.889c0,0,1.355,1.95,2.916,5.966C109.814,151.198,118.44,155.495,126.241,154.271z"/>
						</g>
						<g>
							<g>
								<path style="fill:#D86224;" d="M79.051,127.146c0,0-14.619-31.929-17.559-38.777c-2.941-6.848,6.809-11.098,6.809-11.098          s-3.104-9,8.445-20.25s34.805-6,44.055-15.75c0,0-0.75,8-4.25,12.5c0,0,18.5-10.25,37,3.5c0,0,0,12-4.75,20.75          c0,0,4.75-3.75,7.25-14c0,0,7,25.404-10,36.827L79.051,127.146z"/>
								
									<path style="fill:none;stroke:#D86224;stroke-width:0.5;stroke-linecap:round;stroke-linejoin:round;stroke-miterlimit:10;" d="          M112.604,53.771c0,0,16.447-14.5,41.197,0"/>
								<g>
									
										<path style="fill:none;stroke:#FF8326;stroke-width:0.5;stroke-linecap:round;stroke-linejoin:round;stroke-miterlimit:10;" d="           M153.551,57.271c0,0-6.5,10-25,10.5"/>
									
										<path style="fill:none;stroke:#FF8326;stroke-width:0.5;stroke-linecap:round;stroke-linejoin:round;stroke-miterlimit:10;" d="           M122.818,62.521c0,0,11.305,3.724,23.644,0.737"/>
								</g>
							</g>
							<path style="fill:#FFB48C;" d="M105.419,62.007c23.77-6.474,35.839,6.743,41.991,28.342         c6.152,21.599,6.059,46.267-11.213,51.777c-17.272,5.51-41.795,4.592-52.298-17.433         C73.396,102.668,70.043,71.642,105.419,62.007z"/>
							<g>
								<path style="fill:#D86224;" d="M135.587,83.795c-3.62-0.545-7.328-1.697-10.563-3.436          C127.951,76.383,135.595,78.775,135.587,83.795z"/>
								<path style="fill:#D86224;" d="M112.604,82.14c-1.693,1.758-3.491,3.462-5.031,5.358c-1.781,1.677-2.882,4.014-4.573,5.776          c-1.204-2.67-0.463-5.897,1.319-8.126C106.131,82.882,109.679,81.002,112.604,82.14z"/>
								
									<path style="fill:none;stroke:#EF8D6F;stroke-width:0.75;stroke-linecap:round;stroke-linejoin:round;stroke-miterlimit:10;" d="          M133.813,125.15c0,0-11.64,5.836-20.82-2.45"/>
								<path style="fill:#3A130E;" d="M130.911,99.043c0.411,1.708,1.605,2.886,2.669,2.63c1.063-0.256,1.592-1.847,1.181-3.556          c-0.411-1.708-1.605-2.886-2.669-2.63C131.029,95.743,130.5,97.335,130.911,99.043z"/>
								<path style="fill:#3A130E;" d="M108.942,104.438c0.411,1.708,1.605,2.886,2.668,2.63c1.063-0.256,1.592-1.848,1.182-3.556          c-0.411-1.708-1.605-2.886-2.669-2.63C109.06,101.138,108.531,102.73,108.942,104.438z"/>
								<path style="fill:#F27F52;" d="M85.674,119.571c0.865,5.829,7.318,9.701,14.414,8.648          c7.096-1.053,12.148-6.631,11.283-12.46c-0.865-5.829-7.318-9.701-14.414-8.648          C89.862,108.164,84.81,113.742,85.674,119.571z"/>
								<path style="fill:#F27F52;" d="M146.812,95.436c0.632-0.094,1.256-0.135,1.874-0.153c1.671,7.122,2.597,14.388,2.404,21.043          c-0.376,0.084-0.757,0.161-1.146,0.219c-7.096,1.053-13.55-2.819-14.415-8.648          C134.664,102.067,139.716,96.488,146.812,95.436z"/>
								
									<path style="fill:#FFB48C;stroke:#EF8D6F;stroke-width:0.75;stroke-linecap:round;stroke-linejoin:round;stroke-miterlimit:10;" d="          M122.818,88.369c0,0,0.28,10.321,6.025,18.938c0,0,9.161-2.074,10.12-0.429c0.959,1.644-5.001,11.997-5.001,11.997"/>
							</g>
							<g>
								<path style="fill:#FF8326;" d="M87.551,81.911c13.5,0.229,29.5-15.89,29-28.14c3.5-4.5,4.25-12.5,4.25-12.5          c-9.25,9.75-32.506,4.5-44.055,15.75s-8.445,20.25-8.445,20.25s-9.75,4.25-6.809,11.098          c1.899,4.423,8.667,19.3,13.224,29.288C97.202,109.183,87.551,81.911,87.551,81.911z"/>
								<g>
									
										<path style="fill:none;stroke:#D86224;stroke-width:0.5;stroke-linecap:round;stroke-linejoin:round;stroke-miterlimit:10;" d="           M67.999,72.745c0,0,4.475-11.303,21.013-12.388c16.539-1.086,22.539-2.586,27.539-6.586"/>
									
										<path style="fill:none;stroke:#D86224;stroke-width:0.5;stroke-linecap:round;stroke-linejoin:round;stroke-miterlimit:10;" d="           M120.801,41.271c0,0-7.999,15.259-27.25,18.755"/>
									
										<path style="fill:none;stroke:#D86224;stroke-width:0.5;stroke-linecap:round;stroke-linejoin:round;stroke-miterlimit:10;" d="           M61.299,83.795c0,0,7.447,14.595,28.099,14.786"/>
								</g>
							</g>
							<g>
								<g>
									<g>
										<path style="fill:#FFB48C;" d="M89.012,132.665l-8.969-17.533c0,0-8.081-11.021-16.783-4.315            C55.564,116.747,74.618,142.816,89.012,132.665z"/>
									</g>
									<g>
										<path style="fill:#EF8D6F;" d="M79.649,114.637c0.256,0.308,0.394,0.496,0.394,0.496l8.969,17.533            c-9.008,6.353-19.84-1.48-24.8-9.685C67.509,115.756,74.394,114.442,79.649,114.637z"/>
									</g>
								</g>
							</g>
						</g>
					</g>
					<g>
						<path style="fill:#969269;" d="M158.887,165.593c0,0.001,19.313,33.019,25.312,72.973c0,0,11.333-3.378,21.333-14.712        c2.186-2.477-22-43.814-29-52.288C173.283,167.632,165.884,166.104,158.887,165.593z"/>
						
							<path style="fill:none;stroke:#514D27;stroke-width:0.75;stroke-linecap:round;stroke-linejoin:round;stroke-miterlimit:10;" d="        M183.411,233.797c0,0,10.407-3.662,21.264-13.969"/>
					</g>
				</g>
				<g>
					<g>
						<g>
							<polygon style="fill:#371315;" points="175.407,82.039 195.592,113.141 158.264,129.826 148.56,114.924        "/>
							<polygon style="fill:#371315;" points="231.727,82.039 211.543,113.141 248.87,129.826 258.575,114.924        "/>
							<g>
								<path style="fill:#D0915E;" d="M265.138,231.751c-7.454-34.786-19.085-57.684-19.085-57.684s8.726-5.919,10.736-10.711          c2.01-4.792-3.387-32.135-10.736-40.588c-7.349-8.453-27.742-9.913-42.486-9.913c-14.743,0-35.137,1.46-42.486,9.913          c-7.349,8.453-12.747,35.796-10.736,40.588c2.01,4.792,10.736,10.711,10.736,10.711s-25.837,50.863-25.171,116.151          c9.116,2.381,18.68,3.653,28.542,3.653C208.493,293.872,246.623,268.59,265.138,231.751z"/>
								<g>
									<g>
										<path style="fill:#AD7041;" d="M225.954,155.077c13.48,7.034,24.319,4.659,31.066,1.411            c-0.953-10.067-5.398-27.314-10.967-33.719c-6.33-7.28-22.332-9.372-36.07-9.813            C208.709,122.85,207.952,145.684,225.954,155.077z"/>
										<path style="fill:#AD7041;" d="M135.909,289.639c0.004,0.459-0.126,0.547,0.367,0.674c0.356,0.092,0.712,0.181,1.068,0.27            c0.715,0.177,1.431,0.346,2.149,0.509c1.563,0.354,3.133,0.674,4.709,0.961c3.063,0.557,6.148,0.986,9.246,1.287            c6.36,0.618,12.772,0.699,19.145,0.233c1.53-0.112,3.058-0.255,4.582-0.428c0.597-0.068,1.692,0.013,2.082-0.455            c0.442-0.531,0.875-1.069,1.299-1.614c1.561-2.009,2.998-4.113,4.303-6.297c2.73-4.571,4.887-9.496,6.299-14.632            c3.048-11.086,2.259-22.784-2.637-33.222c-3.863-8.236-9.812-15.334-17.197-20.635c-5.441-3.905-11.565-6.85-17.966-8.803            c-1.106-0.337-2.222-0.645-3.345-0.919c-0.443-0.108-0.888-0.211-1.333-0.308c-0.474,1.525-0.935,3.054-1.384,4.586            c-1.787,6.096-3.375,12.251-4.76,18.451C138.115,249.08,135.752,269.358,135.909,289.639            C135.91,289.832,135.905,289.213,135.909,289.639z"/>
										<path style="fill:#AD7041;" d="M265.041,231.308c-3.266-15.12-7.701-30.018-13.393-44.405            c-4.958,4.202-7.599,10.448-8.357,16.804c-1.2,10.068,1.186,21.404,7.126,29.71c1.994,2.788,4.438,5.264,7.27,7.203            c0.322,0.22,0.649,0.434,0.981,0.64c0.43,0.267,0.686,0.647,1,0.153c0.681-1.076,1.344-2.163,1.989-3.262            c0.646-1.1,1.273-2.211,1.88-3.333C264.036,233.897,265.264,232.343,265.041,231.308z"/>
									</g>
								</g>
							</g>
						</g>
						<path style="fill:#AD7041;" d="M148.56,114.924c-1.337-3.344,23.148-33.731,26.848-32.886        c3.7,0.846,9.936,39.743,7.293,43.548C180.058,129.392,152.563,124.939,148.56,114.924z"/>
						<path style="fill:#D0915E;" d="M258.575,114.924c1.337-3.344-23.148-33.731-26.848-32.886        c-3.699,0.846-9.936,39.743-7.293,43.548C227.076,129.392,254.572,124.939,258.575,114.924z"/>
					</g>
					<path style="fill:none;stroke:#EDC8B9;stroke-width:0.75;stroke-linejoin:round;stroke-miterlimit:10;" d="M185.303,224.071       c0,0-5.391,21.371,6.236,32.685c0,0-2.268-7.391,0-12.097c0,0-0.043,14.109,20.379,17.703c0,0,3.255-8.617,2.854-16.781       c0,0,2.382,6,1.941,10.016c0,0,8.353-3.382,9.241-16.701"/>
					<g>
						<g>
							<ellipse style="fill:#3A130E;" cx="178.802" cy="145.088" rx="3.964" ry="4.809"/>
							<path style="fill:#231012;" d="M178.802,149.898c2.189,0,3.964-2.153,3.964-4.809c0-0.813-0.168-1.577-0.461-2.248         l-7.246,3.819C175.596,148.543,177.067,149.898,178.802,149.898z"/>
							<path style="fill:#EFF6FE;" d="M178.115,144.604c0,0.975-0.379,1.764-0.846,1.764c-0.467,0-0.846-0.79-0.846-1.764         s0.379-1.764,0.846-1.764C177.737,142.84,178.115,143.63,178.115,144.604z"/>
						</g>
						<g>
							<path style="fill:#3A130E;" d="M232.296,145.088c0,2.656-1.775,4.809-3.964,4.809c-2.189,0-3.964-2.153-3.964-4.809         c0-2.656,1.775-4.809,3.964-4.809C230.522,140.279,232.296,142.432,232.296,145.088z"/>
							<path style="fill:#231012;" d="M228.333,149.898c2.189,0,3.964-2.153,3.964-4.809c0-0.813-0.168-1.577-0.461-2.248         l-7.246,3.819C225.126,148.543,226.597,149.898,228.333,149.898z"/>
							<path style="fill:#EFF6FE;" d="M227.645,144.604c0,0.975-0.379,1.764-0.846,1.764c-0.467,0-0.846-0.79-0.846-1.764         s0.379-1.764,0.846-1.764C227.267,142.84,227.645,143.63,227.645,144.604z"/>
						</g>
						<g>
							<g>
								<path style="fill:#F49A8E;" d="M203.567,155.077c0,0-0.153,5.946-6.251,7.324v9.675c0,3.452,2.799,6.251,6.251,6.251          c3.452,0,6.251-2.799,6.251-6.251v-9.675C203.721,161.023,203.567,155.077,203.567,155.077z"/>
								
									<line style="fill:none;stroke:#E27169;stroke-linecap:round;stroke-linejoin:round;stroke-miterlimit:10;" x1="203.567" y1="155.077" x2="203.567" y2="169.981"/>
							</g>
							<g>
								<path style="fill:#231012;" d="M203.567,141.483c-6.53,0-16.604,1.456-16.361,5.098c0.243,3.641,9.054,7.768,16.361,8.496          c7.307-0.728,16.119-4.855,16.361-8.496C220.172,142.939,210.097,141.483,203.567,141.483z"/>
								<g>
									<g>
										<path style="fill:none;stroke:#231012;stroke-linecap:round;stroke-linejoin:round;stroke-miterlimit:10;" d="            M221.832,156.134c0,0-0.528,6.553-9.301,6.553c-8.773,0-8.963-7.61-8.963-7.61s-0.19,7.61-8.963,7.61            c-8.773,0-9.302-6.553-9.302-6.553"/>
									</g>
								</g>
							</g>
						</g>
					</g>
					<g>
						<path style="fill:#EFD79A;" d="M246.342,174.652c-4.819,2.229-23.271,10.127-42.774,10.127        c-19.503,0-37.955-7.898-42.775-10.127c-0.363,0.746-1.056,2.203-1.985,4.301c3.396,4.33,16.975,19.038,44.76,19.038        c27.785,0,41.364-14.709,44.76-19.038C247.398,176.855,246.705,175.398,246.342,174.652z"/>
						<g>
							<g>
								
									<ellipse transform="matrix(0.2298 -0.9732 0.9732 0.2298 -49.4764 361.3706)" style="fill:#F89D4A;" cx="203.567" cy="211.943" rx="11.204" ry="11.204"/>
								<g>
									<defs>
										
											<ellipse id="SVGID_1_" transform="matrix(0.2298 -0.9732 0.9732 0.2298 -49.4764 361.3706)" cx="203.567" cy="211.943" rx="11.204" ry="11.204"/>
									</defs>
									<clipPath id="SVGID_00000059297694675201344680000017609120268180043688_">
										<use xlink:href="#SVGID_1_" style="overflow:visible;"/>
									</clipPath>
									<g style="clip-path:url(#SVGID_00000059297694675201344680000017609120268180043688_);">
										
											<line style="fill:none;stroke:#EFD79A;stroke-width:3;stroke-miterlimit:10;" x1="188.042" y1="215.6" x2="216.713" y2="195.741"/>
										
											<line style="fill:none;stroke:#EFD79A;stroke-width:5;stroke-miterlimit:10;" x1="189.293" y1="221.187" x2="217.964" y2="201.329"/>
									</g>
								</g>
							</g>
							<g>
								
									<ellipse transform="matrix(0.2298 -0.9732 0.9732 0.2298 -49.4763 361.3707)" style="fill:#B2552D;" cx="203.567" cy="211.943" rx="8.35" ry="8.35"/>
								<path style="fill:#D46327;" d="M211.918,211.943c0-1.676-0.499-3.234-1.349-4.542c-1.522-1.607-3.67-2.615-6.059-2.615          c-4.612,0-8.35,3.739-8.35,8.35c0,1.676,0.499,3.234,1.349,4.542c1.522,1.607,3.67,2.615,6.059,2.615          C208.179,220.294,211.918,216.555,211.918,211.943z"/>
							</g>
						</g>
						
							<line style="fill:none;stroke:#FFFFFF;stroke-width:2;stroke-linecap:round;stroke-linejoin:round;stroke-miterlimit:10;" x1="203.567" y1="191.12" x2="203.567" y2="202.113"/>
					</g>
				</g>
				<g>
					<path style="fill:#FFB48C;" d="M203.275,254.978c-0.134-1.208-16.25,0.545-14.327-0.082c1.923-0.628,21.182-7.373,19.481-8.236       c-1.701-0.864-24.231,2.445-20.917,1.186c3.313-1.259,24.919-10.118,23.329-11.727c-1.589-1.609-26.163,7.979-24.341,6.498       c1.822-1.481,22.363-14.187,21.091-15.368c-1.272-1.181-12.076,4.296-14.752,5.879c-2.675,1.583-21.135,8.688-22.252,7.853       c-1.117-0.835,0.29-2.868,3.087-6.795c2.797-3.928,2.891-8.024,2.176-10.126c-0.985-2.894-3.503-1.03-7.588,6.04       c-2.508,4.34-6.874,8.007-12.02,12.347c-4.017,3.388-5.005,10.921-5.246,14.062c-17.36,2.201-49.426,5.672-55.338,4.475       c-2.851-0.577-3.782-29.228-3.139-45.016c0.938-23.056-1.636-31.858-16.763-27.9c-11.429,2.991-17.654,14.861-13.932,59.418       c2.398,28.719,12.891,47.265,21.121,49.336c6.577,1.655,51.149-14.435,74.781-23.938c4.074-0.991,14.128-5.374,22.713-8.6       C189.025,261.055,203.477,256.803,203.275,254.978z"/>
					<g>
						<path style="fill:#969269;" d="M95.866,248.188c0.926-1.543,4.134-66.809-20.007-73.292        c-6.076,3.178-10.721,8.426-12.993,15.02c-4,11.606-18.333,45.363-17.667,48.651c0.667,3.288,17.333,11.622,40.667,11.288        C90.533,249.854,94.866,249.854,95.866,248.188z"/>
						
							<path style="fill:none;stroke:#514D27;stroke-width:0.75;stroke-linecap:round;stroke-linejoin:round;stroke-miterlimit:10;" d="        M45.496,236.425c0,0,17.119,10.555,50.719,9.115"/>
					</g>
				</g>
			</g>
		</g>
		<g>
			
				<ellipse transform="matrix(0.7071 -0.7071 0.7071 0.7071 44.0849 472.3319)" style="fill:#EAE5DF;" cx="592.198" cy="182.951" rx="112.625" ry="112.625"/>
			<g>
				<g>
					<path style="fill:#969269;" d="M643.114,206.614c-3-12.25-25.619-41.303-30.076-45.389c-3-2.75-20.625,1.834-20.625,1.834       l-32.951,10.972c0,0-22.598,10.833-23.598,14.833s12.499,55,21.375,70.75c8.875,15.75,8.903,21.75,8.264,26.25       c-0.152,1.073-0.745,3.331-1.556,6.138c9.028,2.332,18.494,3.574,28.25,3.574c19.578,0,37.987-4.999,54.027-13.785       c-1.47-6.69-2.773-12.259-2.86-14.177C643.114,262.114,646.114,218.864,643.114,206.614z"/>
					<g>
						<path style="fill:#BA6E4D;" d="M555.599,156.465c0,0,5.545,6.065,3.863,17.565c0,0,15.352,13.667,28.19,7.167        c10.081-5.104,4.761-18.139,4.761-18.139s-4.696-4.725-7.331-15.543L555.599,156.465z"/>
						<path style="fill:#AA5044;" d="M587.193,154.133c-0.758-1.886-1.492-4.077-2.111-6.617l-29.483,8.95        c0,0,0.921,1.023,1.898,2.993c5.789,2.235,14.714,4.641,21.451,1.739C583.625,159.183,586,156.515,587.193,154.133z"/>
					</g>
					<g>
						<g>
							<path style="fill:#231012;" d="M518.614,123.514c2.961,6.105,0.5,14.017-6.03,17.687c-6.53,3.67-10.47-0.598-10.47-0.598         c-3,4.906-11.833,10.261-20.833,5.721c-9-4.54-7.667-15.794-7.667-15.794c-5.833,1.333-14.333-3.667-15.667-13.833         c-1.333-10.167,5.5-12.496,5.5-12.496c-1.667-10.996,8-9.338,8-9.338s-1.828-10.766,11.999-15         c13.334-4.083,19.501,7.395,19.501,7.395s6.897-4.761,13.667,1.156c6.77,5.917-1,18.099-1,18.099L518.614,123.514z"/>
							<g>
								<g>
									<g>
										<path style="fill:#3A130E;" d="M471.206,94.931c0.916,3.495,6.833,4.949,5.938,0.035c-0.195-1.07-1.556-1.928-2.269-0.711            c-1.038,1.773,1.957,3.621,3.259,3.921c1.455,0.336,3.359-0.986,3.02-2.609c-0.092-0.439-1.188-3.007-1.948-1.709            c-1.893,3.232,5.093,5.356,6.957,2.799c0.19-0.261-0.244-0.51-0.432-0.252c-1.089,1.493-3.251,1.033-4.65,0.402            c-0.822-0.37-1.505-1.064-1.602-2.027c0.364,0.149,0.729,0.298,1.093,0.446c-0.407,2.076-1.348,2.858-2.823,2.348            c-0.986-0.228-1.709-1.05-2.228-1.85c0.38-0.209,0.76-0.417,1.141-0.626c0.122,0.53,0.13,1.061,0.024,1.593            c-0.49,3.168-4.695-0.74-4.997-1.894C471.607,94.486,471.125,94.618,471.206,94.931L471.206,94.931z"/>
									</g>
								</g>
								<g>
									<g>
										<path style="fill:#3A130E;" d="M508.997,115.738c-1.851-2.515-5.153-3.928-8.078-2.508            c-1.474,0.716-4.982,3.028-4.66,5.068c0.215,1.363,2.608,1.902,3.317,0.68c1.059-1.828-1.783-3.944-3.203-4.282            c-2.591-0.616-6.389,2.624-5.547,5.368c0.326,1.062,0.87,1.935,1.999,2.305c0.493,0.162,1.634,0.483,1.928-0.224            c0.768-1.842-1.456-2.867-2.795-1.914c-1.856,1.32-3.455,4.771-2.917,7.033c0.075,0.314,0.557,0.181,0.482-0.133            c-0.528-2.221,1.202-5.412,2.984-6.68c1.705-1.213,2.143,2.236,0.107,1.269c-2.456-1.166-0.997-4.111,0.293-5.419            c1.556-1.577,3.896-1.451,5.382,0.039c1.057,1.059,1.336,3.15-0.838,2.629c-2.057-0.493,0.939-3.314,1.405-3.728            c3.048-2.714,7.072-2.835,9.709,0.749C508.754,116.247,509.188,115.998,508.997,115.738L508.997,115.738z"/>
									</g>
								</g>
							</g>
							<g>
								<g>
									<g>
										<path style="fill:#231012;" d="M473.864,128.364c-0.302,2.944-2.725,4.975-5.368,5.76            c-0.419,0.125-0.85,0.179-1.285,0.191c-1.376-0.675-1.291-1.13,0.254-1.364c0.357,0.363,0.608,0.788,0.754,1.277            c1.043,2.857-2.781,4.017-4.771,3.886c-0.322-0.021-0.32,0.479,0,0.5c2.688,0.178,5.922-1.364,5.253-4.518            c-0.29-1.367-2.435-3.213-2.923-1.041c-0.514,2.285,2.358,1.737,3.569,1.322c2.553-0.874,4.736-3.271,5.018-6.013            C474.397,128.044,473.897,128.047,473.864,128.364L473.864,128.364z"/>
									</g>
								</g>
								<g>
									<g>
										<path style="fill:#231012;" d="M491.347,83.272c4.56-1.841,0.933-11.145-1.937-9.588c-2.03,1.101,0.393,2.937,1.81,2.971            c1.617,0.039,2.445-0.683,3.164-2.087c0.896-1.748-0.459-3.94-1.388-5.329c-0.178-0.267-0.612-0.017-0.432,0.252            c0.599,0.896,1.051,1.689,1.412,2.732c0.797,2.299-1.047,4.211-3.151,3.866c-0.26-0.095-0.52-0.19-0.78-0.284            c-0.92-0.351-0.874-0.91,0.137-1.679c0.66,0.129,1.221,0.905,1.586,1.402c1.511,2.063,2.438,6.055-0.555,7.263            C490.919,82.909,491.048,83.393,491.347,83.272L491.347,83.272z"/>
									</g>
								</g>
							</g>
						</g>
						<g>
							<path style="fill:#231012;" d="M591.18,92.931c2.336,6.37,9.738,10.095,16.914,7.946c7.176-2.149,6.842-7.948,6.842-7.948         c5.613,1.249,15.601-1.387,18.585-11.015c2.984-9.628-6.038-16.485-6.038-16.485c5.011-3.271,7.317-12.859,0.928-20.879         c-6.389-8.02-12.81-4.722-12.81-4.722c-6.753-8.836-12.274-0.73-12.274-0.73s-6.476-8.792-19.126-1.785         c-12.199,6.757-8.224,19.166-8.224,19.166s-8.216,1.655-8.66,10.636c-0.444,8.98,13.716,11.851,13.716,11.851L591.18,92.931z         "/>
							<g>
								<g>
									<g>
										<path style="fill:#3A130E;" d="M603.11,39.225c0.686,1.073,0.536,2.553,0.198,3.715c-0.452,1.553-2.041,1.546-3.055,0.567            c-1.076-1.121-0.795-1.435,0.842-0.943c0.124,0.387,0.19,0.785,0.198,1.194c0.064,1.018-1.487,5.615-3.977,2.272            c-0.45-0.504-0.422-0.98,0.083-1.428c0.615,0.475,0.887,1.075,0.817,1.8c0.023,1.757-1.734,4.327-3.696,4.044            c-0.315-0.045-0.451,0.436-0.133,0.482c3.128,0.45,6.298-5.37,2.922-6.915c-1.338-0.612-0.617,1.897-0.425,2.269            c1.01,1.951,3.411,1.024,4.365-0.365c0.687-1.001,0.985-4.109-0.504-4.67c-1.665-0.627-1.847,1.126-1.186,2.194            c2.565,4.148,5.812-1.608,3.982-4.47C603.369,38.702,602.936,38.952,603.11,39.225L603.11,39.225z"/>
									</g>
								</g>
								<g>
									<g>
										<path style="fill:#3A130E;" d="M592.747,80.477c-0.776-4.562,2.23-7.09,6.297-7.516c1.07-0.112,2.277-0.114,3.26,0.37            c0.986,0.485-0.211,3.127-1.437,1.963c-0.495-0.47-0.656-1.294-0.73-1.936c-0.202-1.754,0.96-3.071,2.509-3.682            c1.064-0.42,2.245-0.287,3.314,0.011c1.259,0.395,1.958,1.268,2.095,2.619c0.076,1.481-0.514,1.833-1.77,1.055            c-0.747-2.182,3.347-1.246,4.129-1.029c1.28,0.355,2.834,1.01,3.573,2.179c0.172,0.272,0.605,0.021,0.432-0.252            c-1.3-2.056-4.628-2.94-6.91-2.809c-1.714,0.098-2.61,2.316-0.911,3.312c0.815,0.478,1.473-0.767,1.71-1.287            c0.549-1.205,0.151-2.352-0.627-3.31c-1.856-2.284-6.051-1.342-7.512,0.82c-0.849,1.256-0.834,4.34,0.839,5.037            c1.372,0.572,2.705-1.553,2.026-2.706c-1.052-1.788-5.234-0.762-6.706-0.341c-3.235,0.924-4.593,4.516-4.062,7.635            C592.319,80.928,592.8,80.793,592.747,80.477L592.747,80.477z"/>
									</g>
								</g>
							</g>
							<g>
								<g>
									<g>
										<path style="fill:#231012;" d="M625.399,64.461c2.189,1.718,5.263,1.716,7.7,0.625c1.315-0.59,3.918-2.872,1.217-3.788            c-1.605-0.545-1.433,2.011-0.979,2.838c1.627,2.962,5.225,1.691,7.019-0.403c0.208-0.244-0.144-0.599-0.354-0.354            c-1.452,1.696-4.331,3.153-6.037,0.863c-0.357-0.479-0.455-1.115-0.469-1.691c0.452,0.215,0.903,0.431,1.355,0.646            c-0.313,0.417-0.699,0.751-1.157,1.004c-2.288,1.501-5.715,1.655-7.942-0.092            C625.502,63.91,625.146,64.262,625.399,64.461L625.399,64.461z"/>
									</g>
								</g>
								<g>
									<g>
										<path style="fill:#231012;" d="M580.911,44.934c-3.307,1.513-5.573-2.884-5.723-5.596            c-0.039-0.703,0.131-1.576,0.999-1.632c1.498-0.097,0.021,2.522-0.173,2.765c-1.069,1.343-2.921,0.87-4.045-0.124            c-0.998-0.883-1.307-2.436-1.565-3.677c-0.066-0.315-0.548-0.182-0.482,0.133c0.557,2.67,2.933,6.783,6.127,4.327            c0.944-0.726,2.18-4.503-0.161-3.9c-3.443,0.886,0.644,10.254,5.275,8.136C581.456,45.231,581.202,44.8,580.911,44.934            L580.911,44.934z"/>
									</g>
								</g>
							</g>
						</g>
						<path style="fill:#BA6E4D;" d="M546.681,75.481c-16.355,5.181-32.417,21.05-25.11,46.458        c7.652,26.606,28.31,40.005,50.295,33.04c21.985-6.965,31.342-31.204,22.095-55.973        C584.605,73.943,563.036,70.3,546.681,75.481z"/>
						<g>
							
								<ellipse transform="matrix(0.9846 -0.1747 0.1747 0.9846 -15.2601 96.491)" style="fill:#B25050;" cx="540.414" cy="134.919" rx="13.781" ry="11.32"/>
							<path style="fill:#B25050;" d="M575.172,125.799c2.652,5.662,10.389,7.635,17.281,4.407         c6.892-3.228,10.33-10.435,7.679-16.096c-2.652-5.662-10.389-7.635-17.281-4.407         C575.958,112.931,572.52,120.137,575.172,125.799z"/>
							
								<path style="fill:#BA6E4D;stroke:#AA5044;stroke-width:0.75;stroke-linecap:round;stroke-linejoin:round;stroke-miterlimit:10;" d="         M559.462,106.514c0,0,1.253,11.404,4.167,18.741c0,0,4.924-5.034,7.239-2.293c2.431,2.878-2.488,11.704-2.488,11.704"/>
							
								<path style="fill:#BA6E4D;stroke:#AA5044;stroke-width:0.75;stroke-linecap:round;stroke-linejoin:round;stroke-miterlimit:10;" d="         M557.239,139.67c0,0,13.647,6.297,20.998-6.652"/>
							<path style="fill:#231012;" d="M538.781,113.193c-0.741-2.627,0.646-5.723,2.396-7.638c1.79-2.066,4.678-3.387,7.425-3.025         c-1.624,1.779-3.699,3.142-5.205,5.041C541.701,109.284,540.281,111.311,538.781,113.193z"/>
							<path style="fill:#231012;" d="M563.614,97.548c1.323-1.82,4.159-1.967,6.138-1.476c2.251,0.558,4.412,2.229,5.195,4.459         c-1.95-0.161-3.897-0.936-5.754-1.507C567.354,98.462,565.499,97.939,563.614,97.548z"/>
							<path style="fill:#231012;" d="M550.598,118.205c-0.218-0.667-0.548-1.244-0.932-1.686c0.756-1.664,0.642-3.785-0.735-4.995         c-0.291,0.039-0.07,1.263-0.076,1.542c-0.019,0.873-0.171,1.75-0.436,2.585c-0.294-0.086-0.589-0.092-0.866-0.001         c-1.103,0.361-1.527,2.089-0.947,3.861c0.58,1.772,1.943,2.915,3.046,2.555C550.754,121.705,551.178,119.977,550.598,118.205         z"/>
							<path style="fill:#231012;" d="M573.76,111.08c-0.194-0.871-0.584-1.61-1.059-2.122c0.648-1.626,0.487-3.614-0.828-4.771         c-0.291,0.039-0.07,1.263-0.076,1.542c-0.018,0.84-0.158,1.683-0.404,2.489c-0.14-0.013-0.279-0.006-0.417,0.025         c-1.014,0.226-1.586,1.6-1.404,3.191c-0.017,0.051-0.013,0.089,0.017,0.107c0.02,0.15,0.038,0.3,0.072,0.453         c0.406,1.819,1.653,3.089,2.785,2.837C573.577,114.579,574.165,112.899,573.76,111.08z"/>
						</g>
						<g>
							<path style="fill:#3A130E;" d="M596.007,107.592c-20.357-2.196-21.804-17.641-21.804-17.641         c-13.615,0.908-25.344-10.515-25.344-10.515c3.796,19.898-12.876,21.704-12.876,21.704         c5.543,20.049-12.425,27.163-12.425,27.163l-6.173-3.974c-14.353-10.528-4.496-19.899-4.496-19.899         c-8.191-14.993,6.139-24.216,6.139-24.216c4.142-17.68,21.418-12.948,21.418-12.948s5.421-6.987,15.581-7.891         c10.16-0.903,15.106,8.745,15.106,8.745s7.708-1.94,13.573,3.103c5.866,5.043,6.196,13.36,6.196,13.36         s7.646,4.892,7.762,13.21C598.781,106.111,596.007,107.592,596.007,107.592z"/>
							<g>
								<g>
									<g>
										<path style="fill:#231012;" d="M518.788,80.43c0.383,2.036,1.255,4.362,3.698,3.983c1.339-0.208,2.614-2.61,1.987-3.822            c-0.564-1.091-2.184-0.432-2.209,0.713c-0.052,2.327,1.424,4.139,3.797,4.116c2.138-0.021,2.907-2.238,2.65-3.981            c-0.271-1.831-1.812-0.934-2.211,0.272c-1.217,3.677,5.432,6.556,6.961,2.119c0.105-0.306-0.378-0.436-0.482-0.133            c-0.886,2.571-3.167,2.449-4.883,0.869c-0.512-0.471-0.836-1.075-1.061-1.721c-0.334-0.835,0.064-1.259,1.193-1.273            c0.139,0.653,0.086,1.294-0.159,1.923c-0.787,1.859-3.047,1.694-4.301,0.662c-0.368-0.439-0.64-0.933-0.815-1.481            c-0.363-0.674-0.017-0.97,1.038-0.89c-0.305,1.819-2.329,3.359-3.899,1.02c-0.482-0.718-0.664-1.672-0.821-2.508            C519.21,79.98,518.728,80.115,518.788,80.43L518.788,80.43z"/>
									</g>
								</g>
								<g>
									<g>
										<path style="fill:#231012;" d="M535.158,101.22c-0.181,1.34-1.268,2.679-2.413,3.334            c-0.441,0.253-0.902,0.464-1.384,0.631c-1.592,0.264-2.181-0.347-1.766-1.834c1.038-0.402,1.27,1.247,1.338,1.783            c0.113,0.886-0.005,1.814-0.246,2.666c-0.54,1.905-3.461,1.555-4.926,1.276c-0.315-0.06-0.45,0.422-0.133,0.482            c2.302,0.437,5.102,0.445,5.695-2.24c0.227-1.03,0.452-4.398-1.284-4.494c-1.963-0.108-1.61,2.467-0.098,2.867            c2.422,0.64,5.385-2.006,5.7-4.34C535.683,101.037,535.201,100.901,535.158,101.22L535.158,101.22z"/>
									</g>
								</g>
								<g>
									<g>
										<path style="fill:#231012;" d="M570.43,68.04c0.456,1.371,0.111,2.941-0.235,4.298c-0.214,0.84-0.555,1.639-1.006,2.377            c-1.539,2.524-3.392-1.329-1.567-1.075c0.921,0.128,1.581,0.884,1.875,1.717c0.597,1.696-0.922,3.017-2.348,3.456            c-0.532,0.137-1.063,0.137-1.594,0c-1.444-0.298-1.384-2.426,0.809-0.427c2.138,1.948-0.218,4.069-1.967,4.975            c-0.286,0.148-0.034,0.58,0.252,0.432c1.207-0.626,3.334-1.832,3.104-3.508c-0.265-1.934-1.83-3.535-3.854-3.343            c-0.164,0.016-0.282,0.147-0.241,0.316c0.727,3.023,4.419,2.494,5.969,0.43c1.487-1.98-0.656-5.339-3.075-4.449            c-1.618,0.595,0.604,3.585,2.044,2.724c2.193-1.31,3.077-5.771,2.317-8.055C570.811,67.603,570.328,67.733,570.43,68.04            L570.43,68.04z"/>
									</g>
								</g>
								<g>
									<g>
										<path style="fill:#231012;" d="M590.487,84.287c-0.088,1.732-3.199,4.181-4.566,2.22c-0.324-0.464-0.331-1.882,0.54-1.438            c0.532,0.271,0.83,0.918,0.982,1.455c0.613,2.157-2.257,3.169-3.881,2.877c-0.315-0.057-0.45,0.425-0.133,0.482            c1.908,0.343,4.953-0.774,4.542-3.218c-0.15-0.889-1.661-3.297-2.591-1.762c-0.933,1.54,0.819,2.781,2.151,2.704            c1.77-0.101,3.365-1.542,3.456-3.321C591.003,83.965,590.503,83.966,590.487,84.287L590.487,84.287z"/>
									</g>
								</g>
							</g>
						</g>
						<g>
							<path style="fill:#BA6E4D;" d="M596.205,127.4l-0.367-19.059c0,0,1.168-13.984,8.909-12.917         C612.488,96.491,617.26,116.966,596.205,127.4z"/>
							<path style="fill:#AA5044;" d="M611.321,108.249c-0.599,6.501-4.747,14.074-15.186,19.152l-0.22-18.505         C599.246,105.807,607.526,99.443,611.321,108.249z"/>
						</g>
						<g>
							<path style="fill:#BA6E4D;" d="M534.145,145.143l-9.411-16.578c0,0-8.141-11.429-14.254-6.561         C504.367,126.872,510.713,146.916,534.145,145.143z"/>
							<path style="fill:#AA5044;" d="M511.442,136.108c3.755,5.341,11.121,9.845,22.703,9.055l-9.018-16.161         C520.702,127.981,510.353,126.581,511.442,136.108z"/>
						</g>
					</g>
				</g>
				<g>
					<g>
						<g>
							<g>
								<path style="fill:#D6632C;" d="M644.789,238.548c-3.454-3.151-5.434-7.001-6.219-9.894          c-0.458-1.686,0.538-3.424,2.224-3.881c1.68-0.457,3.414,0.531,3.878,2.209c0.029,0.1,1.06,3.575,4.061,6.546          c3.941,3.901,9.445,5.218,16.371,3.925c6.816-1.272,12.051-5.127,15.141-11.146c4.255-8.292,3.912-19.401-0.918-29.717          c-6.01-12.835-12.843-35.119-5.665-48.64c3.713-6.994,10.245-11.412,18.889-12.779c1.726-0.274,6.31-0.039,7.897,4.085          c1.44,3.74-1.42,5.668-3.146,5.941c-6.698,1.059-11.38,4.323-14.289,9.497c-8.137,14.469-3.775,26.787,2.043,39.213          c5.654,12.076,5.96,25.268,0.817,35.288c-3.959,7.714-10.923,12.855-19.608,14.476          C656.225,245.546,649.268,242.635,644.789,238.548z"/>
							</g>
						</g>
						<path style="fill:#EFD79A;" d="M682.756,155.17c0.086-0.159,0.166-0.316,0.256-0.475c2.91-5.174,7.591-8.438,14.289-9.497        c1.726-0.273,4.586-2.201,3.146-5.941c-1.588-4.124-6.171-4.359-7.897-4.085c-8.413,1.33-14.816,5.558-18.576,12.229        C675.62,150.036,678.385,153.243,682.756,155.17z"/>
						<g>
							<defs>
								<path id="SVGID_00000062880098684815049950000009233338370334268064_" d="M644.789,238.548          c-3.454-3.151-5.434-7.001-6.219-9.894c-0.458-1.686,0.538-3.424,2.224-3.881c1.68-0.457,3.414,0.531,3.878,2.209          c0.029,0.1,1.06,3.575,4.061,6.546c3.941,3.901,9.445,5.218,16.371,3.925c6.816-1.272,12.051-5.127,15.141-11.146          c4.255-8.292,3.912-19.401-0.918-29.717c-6.01-12.835-12.843-35.119-5.665-48.64c3.713-6.994,10.245-11.412,18.889-12.779          c1.726-0.274,6.31-0.039,7.897,4.085c1.44,3.74-1.42,5.668-3.146,5.941c-6.698,1.059-11.38,4.323-14.289,9.497          c-8.137,14.469-3.775,26.787,2.043,39.213c5.654,12.076,5.96,25.268,0.817,35.288c-3.959,7.714-10.923,12.855-19.608,14.476          C656.225,245.546,649.268,242.635,644.789,238.548z"/>
							</defs>
							<clipPath id="SVGID_00000181777689289056087790000007844685542180751799_">
								<use xlink:href="#SVGID_00000062880098684815049950000009233338370334268064_" style="overflow:visible;"/>
							</clipPath>
							<g style="clip-path:url(#SVGID_00000181777689289056087790000007844685542180751799_);">
								<path style="fill:none;stroke:#EFD79A;stroke-width:6;stroke-miterlimit:10;" d="M666.774,160.06          c0,0,6.869,8.265,15.683,5.174"/>
								<path style="fill:none;stroke:#EFD79A;stroke-width:6;stroke-miterlimit:10;" d="M682.357,174.416          c0,0-7.093,6.836-13.689,2.802"/>
								<path style="fill:none;stroke:#EFD79A;stroke-width:6;stroke-miterlimit:10;" d="M687.274,186.548          c0,0-6.599,10.173-12.775,7.964"/>
								<path style="fill:none;stroke:#EFD79A;stroke-width:6;stroke-miterlimit:10;" d="M677.228,203.817          c0,0,7.351,4.458,13.982,0.945"/>
								<path style="fill:none;stroke:#EFD79A;stroke-width:6;stroke-miterlimit:10;" d="M678.533,215.528          c0,0,6.607,5.898,14.135,3.592"/>
								<path style="fill:none;stroke:#EFD79A;stroke-width:6;stroke-miterlimit:10;" d="M676.846,225.199          c0,0,2.61,8.09,10.093,11.778"/>
								<path style="fill:none;stroke:#EFD79A;stroke-width:6;stroke-miterlimit:10;" d="M670.024,232.676          c0,0-0.951,8.552,3.722,12.816"/>
								<path style="fill:none;stroke:#EFD79A;stroke-width:6;stroke-miterlimit:10;" d="M659.297,234.735          c0,0-3.63,7.107-1.349,12.899"/>
								<path style="fill:none;stroke:#EFD79A;stroke-width:6;stroke-miterlimit:10;" d="M652.338,231.099          c0,0-6.427,4.698-8.148,11.121"/>
							</g>
						</g>
					</g>
					<g>
						<path style="fill:#FF8326;" d="M598.919,165.459c0,0-1.647,33.596,5.648,56.309c0,0-7.575,5.758-4.139,21.113        c0,0-6.226-10.597-13.518-7.425c0,0,11.002,17.342,17.657,21.82c0,0,45.364,0,60.079,0c14.715,0,18.554-18.554,10.237-34.869        c-8.317-16.315-43.51-55.544-43.51-55.544L598.919,165.459z"/>
						
							<path style="fill:none;stroke:#EB9B22;stroke-width:0.75;stroke-linecap:round;stroke-linejoin:round;stroke-miterlimit:10;" d="        M659.207,216.01c0,0-28.16,0.463-26.716,32.861c0,0-7.824-13.667-16.466-8.549l16.397,16.955"/>
						<g>
							<path style="fill:#FF8326;" d="M613.969,185.453c0,0-3.413,13.602-11.078,17.441c-7.665,3.839-16.942,5.118-23.979,13.116         c-7.038,7.997-3.839,15.675,1.599,14.715s8.036-7.038,13.455-9.597c0,0,16.625-2.879,22.059-6.718         c5.433-3.839,14.076-11.836,21.591-11.516"/>
							<g>
								
									<path style="fill:none;stroke:#EB9B22;stroke-width:0.75;stroke-linecap:round;stroke-linejoin:round;stroke-miterlimit:10;" d="          M580.443,218.93c0,0-4.409,1.557-5.369,7.956"/>
								
									<path style="fill:none;stroke:#EB9B22;stroke-width:0.75;stroke-linecap:round;stroke-linejoin:round;stroke-miterlimit:10;" d="          M582.241,222.408c0,0-3.838,3.164-3.583,8.3"/>
							</g>
							
								<path style="fill:none;stroke:#EB9B22;stroke-width:0.75;stroke-linecap:round;stroke-linejoin:round;stroke-miterlimit:10;" d="         M603.742,219.012c4.635-1.183,9.712-2.785,12.283-4.601c5.433-3.839,14.076-11.836,21.591-11.516"/>
							
								<path style="fill:none;stroke:#EB9B22;stroke-width:0.75;stroke-linecap:round;stroke-linejoin:round;stroke-miterlimit:10;" d="         M613.969,185.453c0,0-3.413,13.602-11.078,17.441c-0.723,0.362-1.461,0.702-2.21,1.026"/>
						</g>
						<path style="fill:#D6632C;" d="M631.373,166.864l-32.454-1.405c0,0-0.287,5.9-0.087,14.414        c3.387,4.64,9.405,11.144,17.194,12.387c7.602,1.213,21.289-3.704,30.7-7.667        C638.296,174.582,631.373,166.864,631.373,166.864z"/>
					</g>
					<g>
						<g>
							<path style="fill:#D6632C;" d="M619.837,135.926c-6.128-16.283-18.616-21.467-18.616-21.467         c-10.747,16.09-4.462,30.69-4.462,30.69L619.837,135.926z"/>
							<path style="fill:#F5ADA1;" d="M615.749,136.504c-4.314-11.464-13.106-15.113-13.106-15.113         c-7.566,11.328-3.141,21.607-3.141,21.607L615.749,136.504z"/>
						</g>
						<g>
							<path style="fill:#D6632C;" d="M635.585,140.232c13.56-10.9,26.948-9.008,26.948-9.008         c1.065,19.32-11.774,28.691-11.774,28.691L635.585,140.232z"/>
							<path style="fill:#F5ADA1;" d="M638.81,142.809c9.547-7.674,18.973-6.342,18.973-6.342c0.75,13.602-8.29,20.199-8.29,20.199         L638.81,142.809z"/>
						</g>
						<g>
							<path style="fill:#FF8326;" d="M652.535,152.314c-2.731-5.488-11.385-13.636-24.04-17.097l0,0c0,0-0.001,0-0.001,0         c-0.001,0-0.001,0-0.002,0l0,0c-12.656-3.46-24.251-0.847-29.395,2.487c-5.144,3.334-19.4,21.201-16.798,31.586         c0,0,7.437-0.083,16.08,5.606c8.642,5.688,10.738,6.866,16.925,8.557c6.187,1.692,8.591,1.744,18.925,1.245         c10.334-0.5,16.695,3.356,16.695,3.356C658.448,180.437,655.266,157.802,652.535,152.314z"/>
							<g>
								<g>
									<path style="fill:#EFD79A;" d="M585.908,154.087c10.488-4.721,21.922-4.097,21.922-4.097           c-7.752-2.751-14.252-2.291-18.646-1.253C588.017,150.443,586.901,152.248,585.908,154.087z"/>
									<path style="fill:#EFD79A;" d="M582.717,161.725c-0.751,2.723-0.98,5.319-0.417,7.564c0,0,1.778-0.015,4.594,0.625           c6.912-9.379,17.816-14.04,17.816-14.04C595.186,154.878,587.543,158.453,582.717,161.725z"/>
									<path style="fill:#EFD79A;" d="M595.248,173.044c3.433-6.551,7.719-10.8,7.719-10.8c-4.773,2.002-8.956,6.14-11.504,9.08           C592.66,171.787,593.925,172.345,595.248,173.044z"/>
									<path style="fill:#EFD79A;" d="M655.553,173.13c-6.627-9.401-16.787-14.681-16.787-14.681           c8.073,1.576,13.435,5.279,16.689,8.408C655.592,168.919,655.634,171.041,655.553,173.13z"/>
									<path style="fill:#EFD79A;" d="M654.414,181.329c-0.738,2.726-1.863,5.077-3.49,6.724c0,0-1.523-0.917-4.273-1.799           c-1.178-11.591-8.194-21.152-8.194-21.152C647.164,169.09,651.924,176.057,654.414,181.329z"/>
									<path style="fill:#EFD79A;" d="M637.867,184.697c0.378-7.386-1.15-13.225-1.15-13.225c3.091,4.152,4.585,9.843,5.284,13.67           C640.735,184.932,639.362,184.769,637.867,184.697z"/>
								</g>
							</g>
						</g>
						<g>
							<g>
								<path style="fill:#3A130E;" d="M630.992,161.942c-0.478,2.09,0.226,4.035,1.572,4.342c1.346,0.308,2.824-1.138,3.302-3.228          c0.478-2.09-0.226-4.034-1.572-4.342C632.948,158.407,631.47,159.852,630.992,161.942z"/>
								<path style="fill:#231012;" d="M632.564,166.284c-1.346-0.307-2.05-2.251-1.572-4.342c0.102-0.445,0.251-0.858,0.432-1.234          l4.094,3.402C634.862,165.608,633.669,166.537,632.564,166.284z"/>
								<path style="fill:#EFF6FE;" d="M633.572,161.874c-0.16,0.697,0.048,1.34,0.463,1.435c0.415,0.095,0.881-0.393,1.04-1.091          c0.159-0.697-0.048-1.34-0.463-1.435C634.197,160.688,633.732,161.176,633.572,161.874z"/>
							</g>
							<g>
								<path style="fill:#231012;" d="M620.834,161.999c1.708,0.39,6.44,1.778,6.205,3.257c-0.236,1.479-7.536,2.57-7.536,2.57          s-6.102-4.154-5.672-5.588C614.26,160.803,619.126,161.608,620.834,161.999z"/>
								<path style="fill:none;stroke:#231012;stroke-linecap:round;stroke-linejoin:round;stroke-miterlimit:10;" d="          M611.293,166.818c0,0,0.581,3.554,3.836,3.855c3.646,0.337,4.373-2.847,4.373-2.847s-0.728,3.184,2.702,4.464          c3.062,1.143,5.129-1.806,5.129-1.806"/>
							</g>
							<g>
								<path style="fill:#231012;" d="M607.659,156.61c-0.478,2.09,0.226,4.035,1.572,4.342c1.346,0.308,2.824-1.138,3.302-3.228          c0.478-2.09-0.226-4.035-1.572-4.342C609.616,153.074,608.137,154.52,607.659,156.61z"/>
								<path style="fill:#231012;" d="M609.232,160.952c-1.346-0.308-2.05-2.252-1.572-4.342c0.102-0.445,0.251-0.858,0.432-1.233          l4.094,3.402C611.529,160.275,610.336,161.204,609.232,160.952z"/>
								<path style="fill:#EFF6FE;" d="M610.239,156.542c-0.159,0.697,0.048,1.34,0.463,1.435c0.415,0.095,0.881-0.393,1.04-1.091          c0.159-0.697-0.048-1.34-0.463-1.435C610.865,155.356,610.399,155.844,610.239,156.542z"/>
							</g>
						</g>
					</g>
				</g>
				<path style="fill:#AA5044;" d="M696.098,267.683c-3.026,6.07-53.08-2.66-78.237-6.651c-4.192-0.057-14.97-2.086-24.059-3.316      c-9.089-1.23-24.125-2.15-24.336-3.974c-0.139-1.208,15.963-3.094,13.948-3.277c-2.015-0.183-22.293-2.461-20.828-3.682      c1.465-1.221,24.166-3.023,20.655-3.51c-3.511-0.488-26.548-4.303-25.358-6.227c1.19-1.923,27.284,1.941,25.177,0.904      c-2.107-1.037-24.965-8.84-23.988-10.275c0.976-1.435,12.73,1.493,15.691,2.439c2.961,0.946,22.54,3.754,23.443,2.691      c0.903-1.063-0.922-2.731-4.525-5.935c-3.603-3.205-4.609-7.177-4.38-9.385c0.314-3.041,3.185-1.785,8.745,4.195      c3.413,3.671,8.488,6.272,14.471,9.354c4.672,2.406,7.316,9.528,8.251,12.537c17.414-1.728,43.248-5.014,49.095-6.499      C679.996,234.497,702.5,254.843,696.098,267.683z"/>
				<path style="fill:#BA6E4D;" d="M691.076,249.243c-0.279-1.183-16.065,2.507-14.232,1.651      c1.833-0.856,20.135-9.881,18.342-10.533c-1.793-0.652-23.757,5.358-20.62,3.708c3.137-1.65,23.512-13.058,21.74-14.463      c-1.772-1.405-25.006,11.086-23.376,9.395c1.63-1.691,20.483-16.788,19.077-17.807c-1.406-1.018-11.467,5.725-13.932,7.62      c-2.464,1.895-19.929,11.181-21.139,10.487c-1.21-0.693-0.059-2.882,2.242-7.119c2.301-4.237,1.899-8.315,0.935-10.315      c-1.328-2.754-3.602-0.598-6.802,6.914c-1.964,4.612-5.855,8.78-10.438,13.71c-3.578,3.849-3.648,11.446-3.506,14.593      c-16.967,4.285-48.486,12.371-54.39,11.136c-6.763-1.414-15.724-28.276-22.024-42.768s-19.281-44.39-26.087-38.077      c-9.164,8.5-12.108,37.662,6.248,73.488c13.142,25.648,25.157,43.409,33.578,44.469c6.729,0.847,49.027-20.516,71.336-32.809      c3.924-1.476,13.374-7.043,21.506-11.285C677.666,256.999,691.497,251.03,691.076,249.243z"/>
			</g>
		</g>
		<g>
			
				<ellipse transform="matrix(0.7071 -0.7071 0.7071 0.7071 -130.4145 382.6941)" style="fill:#EAE5DF;" cx="396.745" cy="348.771" rx="112.625" ry="112.625"/>
			<g>
				<g>
					<g>
						<g>
							<g>
								<path style="fill:#D6986E;" d="M458.426,421.019c-3.599-3.283-5.662-7.295-6.481-10.31          c-0.477-1.757,0.561-3.568,2.317-4.044c1.751-0.476,3.557,0.553,4.04,2.301c0.03,0.104,1.104,3.725,4.232,6.821          c4.106,4.065,9.841,5.437,17.059,4.09c7.102-1.326,12.557-5.342,15.776-11.614c4.434-8.641,4.077-20.216-0.956-30.965          c-6.263-13.374-13.383-36.594-5.903-50.682c3.869-7.287,10.675-11.892,19.682-13.315c1.799-0.286,6.574-0.04,8.229,4.256          c1.501,3.897-1.48,5.906-3.278,6.19c-6.98,1.104-11.857,4.505-14.889,9.896c-8.479,15.076-3.934,27.912,2.129,40.859          c5.892,12.583,6.21,26.329,0.851,36.77c-4.125,8.038-11.381,13.395-20.431,15.084          C470.343,428.311,463.093,425.277,458.426,421.019z"/>
							</g>
						</g>
						<path style="fill:#AD7041;" d="M497.988,334.14c0.09-0.165,0.173-0.329,0.266-0.495c3.032-5.391,7.91-8.792,14.889-9.896        c1.798-0.284,4.779-2.293,3.278-6.19c-1.654-4.297-6.43-4.542-8.229-4.256c-8.766,1.386-15.438,5.791-19.356,12.742        C490.552,328.791,493.432,332.132,497.988,334.14z"/>
						<g>
							<defs>
								<path id="SVGID_00000014600394883430040360000008423835961842853007_" d="M458.426,421.019          c-3.599-3.283-5.662-7.295-6.481-10.31c-0.477-1.757,0.561-3.568,2.317-4.044c1.751-0.476,3.557,0.553,4.04,2.301          c0.03,0.104,1.104,3.725,4.232,6.821c4.106,4.065,9.841,5.437,17.059,4.09c7.102-1.326,12.557-5.342,15.776-11.614          c4.434-8.641,4.077-20.216-0.956-30.965c-6.263-13.374-13.383-36.594-5.903-50.682c3.869-7.287,10.675-11.892,19.682-13.315          c1.799-0.286,6.574-0.04,8.229,4.256c1.501,3.897-1.48,5.906-3.278,6.19c-6.98,1.104-11.857,4.505-14.889,9.896          c-8.479,15.076-3.934,27.912,2.129,40.859c5.892,12.583,6.21,26.329,0.851,36.77c-4.125,8.038-11.381,13.395-20.431,15.084          C470.343,428.311,463.093,425.277,458.426,421.019z"/>
							</defs>
							<clipPath id="SVGID_00000085957000162776231950000010394469837897079182_">
								<use xlink:href="#SVGID_00000014600394883430040360000008423835961842853007_" style="overflow:visible;"/>
							</clipPath>
							<g style="clip-path:url(#SVGID_00000085957000162776231950000010394469837897079182_);">
								<path style="fill:none;stroke:#AD7041;stroke-width:6;stroke-miterlimit:10;" d="M481.334,339.235          c0,0,7.157,8.612,16.342,5.391"/>
								<path style="fill:none;stroke:#AD7041;stroke-width:6;stroke-miterlimit:10;" d="M497.572,354.194          c0,0-7.391,7.123-14.263,2.919"/>
								<path style="fill:none;stroke:#AD7041;stroke-width:6;stroke-miterlimit:10;" d="M502.695,366.835          c0,0-6.876,10.6-13.312,8.298"/>
								<path style="fill:none;stroke:#AD7041;stroke-width:6;stroke-miterlimit:10;" d="M492.227,384.829          c0,0,7.66,4.645,14.569,0.985"/>
								<path style="fill:none;stroke:#AD7041;stroke-width:6;stroke-miterlimit:10;" d="M493.587,397.032          c0,0,6.885,6.146,14.729,3.743"/>
								<path style="fill:none;stroke:#AD7041;stroke-width:6;stroke-miterlimit:10;" d="M491.83,407.109          c0,0,2.719,8.43,10.517,12.272"/>
								<path style="fill:none;stroke:#AD7041;stroke-width:6;stroke-miterlimit:10;" d="M484.721,414.9          c0,0-0.991,8.911,3.878,13.354"/>
								<path style="fill:none;stroke:#AD7041;stroke-width:6;stroke-miterlimit:10;" d="M473.543,417.046          c0,0-3.782,7.406-1.406,13.441"/>
								<path style="fill:none;stroke:#AD7041;stroke-width:6;stroke-miterlimit:10;" d="M466.292,413.257          c0,0-6.697,4.895-8.49,11.588"/>
							</g>
						</g>
					</g>
					<path style="fill:#AD7041;" d="M436.213,348.771l-37.246-7.075c-20.435,28.346-27.247,89.045-24.041,117.581       c7.06,1.386,14.353,2.12,21.819,2.12c24.863,0,47.84-8.063,66.471-21.708C475.006,384.313,436.213,348.771,436.213,348.771z"/>
				</g>
				<path style="fill:#E0A375;" d="M427.939,414.099c0,0,18.658,33.57,27.992,37.903c9.333,4.333,17.333,4.667,20.667,2.333      c3.333-2.333,3.333-12.734,2-18.667c-1.333-5.932-25.658-48.667-31.663-58c-6.004-9.333-17.337-28-32.004-18.333      C400.264,369.002,419.062,395.872,427.939,414.099z"/>
				<g>
					<g>
						<path style="fill:#231012;" d="M401.107,251.17c0.682,3.112-3.254,6.049-6.053,4.678c-0.589-0.289,0.453-0.379,0.668-0.44        c0.973-0.278,1.904-0.717,2.693-1.357c0.657-0.479,1.238-1.068,1.733-1.712C400.318,252.118,400.85,251.028,401.107,251.17z"/>
						<path style="fill:#915933;" d="M334.598,310.336c2.182,1.812,9.167,1.767,16.333-0.833c7.174-2.603,4-12,3.333-18.333        c-0.667-6.333,3.931-13.167,6.382-13c2.451,0.167,32.939-25.593,32.939-25.593s9.346-0.287,13.013-8.597        c3.667-8.31,2.167-16.477,0-17.643c-2.167-1.167-7.548,2.833-12.691,3.5c0,0,5.427-2.833,6.976-11.167        c1.548-8.333-1.489-13-4.137-14.833c-2.648-1.833-6.657,2.833-17.736,5.833s-24.245,6.833-39.079,8.833        c-14.833,2-29.833,8.833-29.167,26.167c0.667,17.333,15.167,34.667,19,47C333.598,304.002,331.431,307.707,334.598,310.336z"/>
						<path style="fill:#CE8061;" d="M396.745,252.436c0,0,4.185,11.233,13.519,15.4c0,0-5.091,6.661-11.333,7.833L396.745,252.436z        "/>
						<path style="fill:#E0A375;" d="M379.514,223.002c10.064,0.979,16.25,16.25,19.5,31.75s2.462,43-2.269,45.25        s-19.481,0.75-25.231,2.25s4.75,32,4.75,32l-38.75,7.25c0,0,3.75-18-2.5-42s-20.849-49.739-11.849-61.382        C332.165,226.477,361.514,221.252,379.514,223.002z"/>
						<path style="fill:#915933;" d="M390.598,239.002c-1.135,1.728-2.473,3.307-3.653,5.001c-1.333,1.559-2.28,3.447-3.68,4.953        C381.662,244.673,385.806,238.466,390.598,239.002z"/>
						<g>
							<path style="fill:#E5806E;" d="M394.969,270.158c0.274,6.246-5.668,11.579-13.272,11.912         c-7.604,0.333-13.989-4.46-14.263-10.706c-0.274-6.246,5.669-11.579,13.272-11.913         C388.309,259.119,394.695,263.913,394.969,270.158z"/>
							<path style="fill:#231012;" d="M393.254,254.685c1.401-1.548,1.844-4.135,0.448-5.734c-0.294,0.001-0.236,1.243-0.278,1.519         c-0.154,0.993-0.477,1.971-0.946,2.862c-0.491-0.551-1.087-0.842-1.668-0.734c-1.141,0.213-1.788,1.87-1.446,3.703         c0.342,1.832,1.543,3.145,2.683,2.933c1.14-0.213,1.788-1.87,1.446-3.703C393.438,255.232,393.352,254.953,393.254,254.685z"/>
							
								<path style="fill:none;stroke:#B76C53;stroke-width:0.75;stroke-linecap:round;stroke-linejoin:round;stroke-miterlimit:10;" d="         M386.931,275.669c0,0,4.57,8.336,13.952,6.418"/>
						</g>
						<path style="fill:#CE8061;" d="M361.273,287.836c0,0,1.152,15.29,8.992,23.871c-0.784-4.973-0.734-8.937,1.248-9.454        c5.75-1.5,20.5,0,25.231-2.25c0,0-21.814-0.333-26.481-3.667C365.598,293.002,361.273,287.836,361.273,287.836z"/>
						<g>
							<path style="fill:#AD7041;" d="M396.745,203.836c-2.648-1.833-6.657,2.833-17.736,5.833c-11.078,3-24.245,6.833-39.078,8.833         c-14.833,2-29.833,8.833-29.167,26.167c0.667,17.333,15.167,34.667,19,47c3.833,12.333,1.667,16.038,4.833,18.667         c2.182,1.812,9.167,1.767,16.333-0.833c7.174-2.603,4-12,3.333-18.333c-0.603-5.725,3.092-11.84,5.618-12.842l1.271-12.863         c13.889-9.538,8.778-24.462,8.778-24.462c6.833-1.667,18.293-4.537,23.976-11.167l1.092-0.745         c1.666-1.298,4.771-4.436,5.884-10.422C402.431,210.336,399.393,205.669,396.745,203.836z"/>
							<g>
								
									<path style="fill:none;stroke:#915933;stroke-width:0.5;stroke-linecap:round;stroke-linejoin:round;stroke-miterlimit:10;" d="          M369.67,254.68c0,0-34.357,4.644-56.464-21.6c0,0,28.8,20.996,57.596,15.876"/>
								
									<path style="fill:none;stroke:#915933;stroke-width:0.5;stroke-linecap:round;stroke-linejoin:round;stroke-miterlimit:10;" d="          M398.967,206.095c0,0-3.536,14.574-19.203,18.074c-15.667,3.5-47.693-8.778-65.013,6.444"/>
								
									<path style="fill:none;stroke:#915933;stroke-width:0.5;stroke-linecap:round;stroke-linejoin:round;stroke-miterlimit:10;" d="          M396.349,227.874c0,0-17.43,8.588-41.257-4.309"/>
							</g>
						</g>
						<g>
							<path style="fill:#E0A375;" d="M366.014,283.309l-4.239-16.765c0,0-5.373-10.73-12.526-5.141         C342.096,266.991,353.273,287.109,366.014,283.309z"/>
							<path style="fill:#CE8061;" d="M366.014,283.309l-4.239-16.765c0,0-0.219-0.435-0.622-1.079         c-2.34-0.874-5.779-1.306-8.998,1.527c-2.025,1.782-2.548,5.031-2.25,8.461C353.353,280.905,359.474,285.259,366.014,283.309         z"/>
						</g>
					</g>
					<g>
						<path style="fill:#915933;" d="M296.94,219.244c-25.461,0.79-24.833,28.175-17.5,42.921        c7.333,14.746,28.333,56.913,0.167,73.746c0,0,18,2,31.167-11.167c13.167-13.167,15.207-40.697,12.5-63.5        C320.566,238.441,318.44,218.577,296.94,219.244z"/>
						<g>
							
								<path style="fill:none;stroke:#AD7041;stroke-width:0.5;stroke-linecap:round;stroke-linejoin:round;stroke-miterlimit:10;" d="         M306.728,220.759c0,0-12.63-1.978-15.464,12.299c-2.833,14.278,11.594,34.278,15.464,52.778         c3.87,18.5-6.612,43.649-27.121,50.075"/>
							
								<path style="fill:none;stroke:#AD7041;stroke-width:0.5;stroke-linecap:round;stroke-linejoin:round;stroke-miterlimit:10;" d="         M294.855,334.143c0,0,14.923-9.474,12.666-42.474"/>
							
								<path style="fill:none;stroke:#AD7041;stroke-width:0.5;stroke-linecap:round;stroke-linejoin:round;stroke-miterlimit:10;" d="         M283.238,223.565c0,0-8.078,9.725-3.632,26.572c5.991,22.698,26.68,48.384,17.002,74.041"/>
						</g>
						<g>
							
								<path style="fill:none;stroke:#915933;stroke-width:0.5;stroke-linecap:round;stroke-linejoin:round;stroke-miterlimit:10;" d="         M316.264,232.169c0,0,27.5,72.333-7.5,97.333"/>
							
								<path style="fill:none;stroke:#915933;stroke-width:0.5;stroke-linecap:round;stroke-linejoin:round;stroke-miterlimit:10;" d="         M276.098,241.002c0,0-2.815,10.167,3.509,26.667c6.324,16.5,16.991,46.5,3.324,61.833"/>
						</g>
					</g>
				</g>
				<g>
					<path style="fill:#969269;" d="M326.534,348.771c0,0,4.733-10.46,8.397-14.628c3.664-4.168,30.824-10.807,44.079-6.807       c13.255,4,17.862,12,17.862,12L326.534,348.771z"/>
					<g>
						<g>
							<path style="fill:#7E7B44;" d="M419.638,344.572c-19.333-9.436-42.041-16.42-74.041-8.661         c-15.269,3.702-33.71,19.092-34.855,32.092c-0.863,9.798,7.527,46.667,19.103,71.374         c18.707,13.836,41.846,22.021,66.9,22.021c9.085,0,17.916-1.083,26.378-3.114l1.347-35.381c0,0,3.46,8.101,5.794,10.101         s17.333-4,25.667-12c8.333-8,12.667-16,10-22.667C463.264,391.669,438.972,354.007,419.638,344.572z"/>
							<g>
								<defs>
									<path id="SVGID_00000062906771381415374730000013392915120822735030_" d="M419.638,344.572           c-19.333-9.436-42.041-16.42-74.041-8.661c-15.269,3.702-33.71,19.092-34.855,32.092           c-0.863,9.798,7.527,46.667,19.103,71.374c18.707,13.836,41.846,22.021,66.9,22.021c9.085,0,17.916-1.083,26.378-3.114           l1.347-35.381c0,0,3.46,8.101,5.794,10.101s17.333-4,25.667-12c8.333-8,12.667-16,10-22.667           C463.264,391.669,438.972,354.007,419.638,344.572z"/>
								</defs>
								<clipPath id="SVGID_00000105393845935731758300000007937713515313806502_">
									<use xlink:href="#SVGID_00000062906771381415374730000013392915120822735030_" style="overflow:visible;"/>
								</clipPath>
								<g style="clip-path:url(#SVGID_00000105393845935731758300000007937713515313806502_);">
									<g>
										<g>
											<g>
												<path style="fill:#EAE5DF;" d="M307.39,365.552c6.057-4.286,12.135-8.508,19.923-6.665              c6.336,1.499,5.376,6.98,3.799,11.802c-1.14,3.484-3.12,7.9-1.469,11.516c1.355,2.968,5.845,2.359,8.381,2.059              c4.957-0.587,10.124-1.646,14.898,0.432c5.573,2.426,6.091,10.193,4.423,15.268c-1.764,5.366-8.036,6.406-12.89,6.906              c-3.679,0.379-8.73,1.711-8.978,6.28c-0.149,2.745,0.868,5.433,0.144,8.151c-0.634,2.379-2.875,4.793-4.858,6.149              c-3.525,2.411-7.828,1.226-11.135-0.916c-6.359-4.121-12.712-14.361-10.123-22.13c0.102-0.307-0.381-0.437-0.482-0.133              c-2.517,7.551,3.135,16.743,8.689,21.452c2.623,2.223,5.952,3.828,9.453,3.537c3.829-0.318,6.545-3.393,8.326-6.519              c1.253-2.2,0.913-4.487,0.598-6.895c-0.548-4.187,1.389-6.965,5.448-8.015c4.488-1.161,9.135-0.651,13.13-3.444              c3.339-2.336,3.995-6.527,3.888-10.318c-0.124-4.395-1.66-8.183-5.864-10.014c-5.45-2.373-11.554-0.368-17.175-0.065              c-3.356,0.18-5.868-0.98-5.961-4.66c-0.082-3.238,1.397-6.483,2.364-9.512c1.427-4.472,1.762-8.979-3.229-11.021              c-7.927-3.243-15.37,1.951-21.552,6.325C306.877,365.305,307.126,365.738,307.39,365.552L307.39,365.552z"/>
											</g>
										</g>
										<g>
											<g>
												<path style="fill:#EAE5DF;" d="M393.598,332.752c-5.884-0.2-11.485,2.566-15.339,6.973              c-3.206,3.665-5.733,8.754-3.309,13.513c0.982,1.927,2.949,3.274,4.375,4.845c2.393,2.637,2.14,5.607,0.588,8.571              c-2.153,4.11-5.79,7.363-6.776,12.048c-0.932,4.425,1.781,8.243,5.721,9.918c1.91,0.812,4.058,1.099,6.066,0.537              c2.303-0.644,4.24-2.959,6.134-4.272c2.932-2.033,5.737-2.889,9.195-1.751c2.826,0.931,5.367,2.388,8.279,3.109              c4.522,1.121,8.713-1.755,11.303-5.163c4.534-5.966,5.328-14.536,7.555-21.505c1.978-6.188,6.14-18.255,14.808-15.665              c0.31,0.093,0.441-0.39,0.133-0.482c-7-2.091-11.202,5.197-13.459,10.646c-3.057,7.381-3.985,15.491-7.183,22.782              c-2.775,6.326-8.203,10.557-15.243,8.272c-4.77-1.548-8.376-4.392-13.422-2.05c-2.57,1.193-4.528,3.349-6.844,4.917              c-3.122,2.114-7.589,0.543-10.191-1.712c-5.245-4.548-1.208-11.207,1.859-15.546c1.679-2.376,3.466-4.822,3.818-7.787              c0.397-3.337-2.384-5.659-4.517-7.749c-4.737-4.643-2.221-10.745,1.463-15.121c3.665-4.354,9.305-7.02,14.985-6.827              C393.92,333.263,393.919,332.763,393.598,332.752L393.598,332.752z"/>
											</g>
										</g>
										<g>
											<g>
												<path style="fill:#EAE5DF;" d="M429.848,438.336c0.199-8.282-1.976-17.159-6.151-24.315              c-3.731-6.394-11.425-11.777-18.697-7.314c-3.297,2.023-5.152,5.691-8.373,7.817c-2.202,1.453-4.806,1.452-7.295,0.905              c-2.893-0.636-5.848-1.173-8.79-1.517c-8.738-1.022-22.777,5.262-17.679,15.953c2.362,4.954,9.581,4.184,11.718,9.661              c1.083,2.777-0.622,6.032-1.848,8.447c-1.218,2.399-2.574,4.714-3.375,7.297c-2.175,7.011,0.891,13.497,7.319,16.807              c6.274,3.23,14.406,2.858,20.272-1.061c7.613-5.087,7.097-18.054,16.655-20.661c5.092-1.388,10.013,2.173,14.86,3.148              c4.176,0.841,8.175-0.12,10.685-3.708c0.185-0.265-0.248-0.514-0.432-0.252c-4.137,5.913-11.329,3.469-16.845,1.282              c-3.982-1.579-8.355-1.843-11.94,0.753c-3.634,2.632-5.572,7.35-7.277,11.323c-1.791,4.174-4.608,7.353-8.779,9.25              c-7.267,3.306-17.419,1.544-22.392-4.926c-2.634-3.427-2.848-7.806-1.644-11.823c1.449-4.835,5.547-9.06,5.534-14.292              c-0.012-4.917-5.567-6.753-9.135-8.576c-3.133-1.601-4.416-5.406-3.934-8.742c0.505-3.49,4.404-5.96,7.188-7.522              c5.935-3.327,12.645-1.708,18.918-0.508c3.989,0.763,7.144,0.589,10.273-2.21c3.184-2.848,5.257-6.597,9.674-7.736              c4.81-1.239,9.462,1.56,12.502,5.052c5.935,6.819,8.361,17.409,8.501,26.248c0.006,0.406-0.003,0.813-0.012,1.219              C429.34,438.658,429.84,438.658,429.848,438.336L429.848,438.336z"/>
											</g>
										</g>
										<g>
											<g>
												<path style="fill:#EAE5DF;" d="M457.264,376.752c-6.874-0.638-15.883,4.566-15.045,12.321              c0.324,3.001,3.226,4.534,5.432,6.095c2.134,1.511,3.458,3.538,2.859,6.238c-0.474,2.135-2.338,3.935-3.469,5.74              c-4.406,7.03,3.52,15.664,9.88,17.8c7.856,2.639,15-3.608,17.583-10.544c0.113-0.303-0.371-0.432-0.482-0.133              c-2.884,7.745-10.706,13.169-18.853,9.451c-3.97-1.812-7.139-5.649-8.404-9.773c-1.387-4.517,1.411-7.173,3.495-10.688              c3.105-5.236-1.975-7.926-5.421-10.729c-4.32-3.513-1.544-9.138,1.935-12.018c2.836-2.347,6.812-3.601,10.49-3.26              C457.585,377.282,457.582,376.782,457.264,376.752L457.264,376.752z"/>
											</g>
										</g>
									</g>
								</g>
							</g>
						</g>
						<g>
							
								<path style="fill:none;stroke:#514D27;stroke-width:0.75;stroke-linecap:round;stroke-linejoin:round;stroke-miterlimit:10;" d="         M419.638,344.572c0,0-20.56-2.349-16.599,20.431c4.281,24.617,21.431,57.899,21.431,57.899"/>
							
								<path style="fill:none;stroke:#514D27;stroke-width:0.75;stroke-linecap:round;stroke-linejoin:round;stroke-miterlimit:10;" d="         M465.931,398.336c0,0-8.983,25.72-37.992,31.527"/>
						</g>
					</g>
				</g>
				<g>
					<g>
						<g>
							<g>
								<path style="fill:#D6986E;" d="M378.801,340.34c-0.727,9.475-4.93,15.784-11.134,14.719          c-6.205-1.065-8.263-9.848-6.656-19.214c1.607-9.366,5.844-13.414,12.049-12.349c3.103,0.532,9.128,4.835,9.882,8.33          C383.694,335.322,379.632,329.49,378.801,340.34z"/>
							</g>
							<g>
								<g>
									<g>
										
											<path style="fill:none;stroke:#AD7041;stroke-width:0.75;stroke-linecap:round;stroke-linejoin:round;stroke-miterlimit:10;" d="            M364.233,339.648c0,0-1.83,9.809,0.379,14.047"/>
									</g>
									<g>
										
											<path style="fill:none;stroke:#AD7041;stroke-width:0.75;stroke-linecap:round;stroke-linejoin:round;stroke-miterlimit:10;" d="            M370.898,340.792c0,0-0.495,7.069,2.866,12.538"/>
									</g>
								</g>
							</g>
						</g>
					</g>
					<g>
						<g>
							<path style="fill:#AD7041;" d="M423.338,307.891c0,0-0.283-10.758-13.527-20.824c0,0-7.906,5.053-11.84,22.107         L423.338,307.891z"/>
							<path style="fill:#F5ADA1;" d="M419.867,306.988c0,0-0.199-7.551-9.494-14.616c0,0-5.549,3.546-8.31,15.516L419.867,306.988z         "/>
						</g>
						<g>
							<path style="fill:#AD7041;" d="M440.171,315.107c0,0,7.986-7.213,24.409-4.563c0,0,1.793,9.21-7.846,23.819L440.171,315.107z         "/>
							<path style="fill:#F5ADA1;" d="M443.219,316.998c0,0,5.605-5.063,17.132-3.203c0,0,1.258,6.464-5.507,16.718L443.219,316.998         z"/>
						</g>
						<g>
							<path style="fill:#D6986E;" d="M458.879,359.285c2.133-7.62-5.419-16.447-5.419-16.447s8.084,7.585,7.77-1.378         c-0.314-8.963-10.767-23.361-28.961-31.16c-18.194-7.799-35.83-5.44-42.537,0.513s4.36,6.577,4.36,6.577         s-11.6,0.619-15.648,7.417c-4.048,6.799,10.783,11.288,10.783,11.288s0.149,3.756,1.647,7.312         c1.499,3.556,13.202,9.749,21.501,13.306c8.299,3.557,20.854,7.762,24.463,6.396c3.608-1.367,7.602-3.539,7.602-3.539         S456.746,366.904,458.879,359.285z"/>
							<g>
								<g>
									<g>
										<path style="fill:#AD7041;" d="M425.022,311.157c3.357,1.439,6.714,2.878,10.071,4.317            c0.128-0.305,0.257-0.609,0.385-0.914c-3.271-1.33-6.738-2.014-10.255-2.228c-0.517-0.031-0.655,0.683-0.252,0.932            c2.592,1.6,5.099,3.331,7.656,4.985c0.084-0.311,0.168-0.621,0.252-0.932c-2.427-0.252-4.806-0.841-7.245-0.977            c-0.42-0.023-0.685,0.574-0.354,0.853c1.42,1.2,2.479,2.654,4.16,3.521c0.084-0.311,0.168-0.621,0.252-0.932            c-1.582-0.117-3.138-0.219-4.646-0.753c-0.461-0.164-0.87,0.518-0.486,0.836c1.202,0.997,2.201,2.12,3.595,2.853            c0.084-0.311,0.168-0.621,0.252-0.932c-1.178-0.036-2.323,0.103-3.494,0.205c-0.333,0.029-0.682,0.419-0.432,0.752            c0.689,0.919,1.226,1.743,2.235,2.338c0.04-0.305,0.08-0.609,0.119-0.914c-1.046,0.29-1.948,0.312-3.001,0.342            c-0.643,0.018-0.645,1.018,0,1c1.134-0.032,2.174-0.074,3.267-0.377c0.418-0.116,0.493-0.694,0.119-0.914            c-0.879-0.518-1.288-1.195-1.876-1.979c-0.144,0.251-0.288,0.502-0.432,0.752c1.171-0.103,2.316-0.241,3.494-0.205            c0.49,0.015,0.693-0.7,0.252-0.932c-1.307-0.687-2.268-1.764-3.393-2.697c-0.162,0.279-0.324,0.557-0.487,0.836            c1.597,0.566,3.234,0.665,4.911,0.789c0.495,0.037,0.685-0.709,0.252-0.932c-1.604-0.828-2.608-2.224-3.958-3.365            c-0.118,0.284-0.236,0.569-0.353,0.854c2.436,0.136,4.82,0.725,7.245,0.977c0.529,0.055,0.634-0.685,0.252-0.932            c-2.557-1.654-5.064-3.385-7.656-4.985c-0.084,0.311-0.168,0.621-0.252,0.932c3.433,0.208,6.8,0.895,9.99,2.192            c0.524,0.213,0.904-0.692,0.385-0.914c-3.357-1.439-6.714-2.878-10.071-4.317            C424.94,310.042,424.43,310.904,425.022,311.157L425.022,311.157z"/>
									</g>
								</g>
								<g>
									<g>
										<g>
											<g>
												<path style="fill:#AD7041;" d="M408.316,309.105c3.112,0.806,6.311,0.693,9.485,1.046              c-0.044-0.327-0.089-0.655-0.133-0.982c-2.389,0.633-4.777,1.103-7.005,2.208c-0.46,0.228-0.223,0.929,0.252,0.932              c1.604,0.011,3.076,0.528,4.646,0.753c-0.04-0.305-0.08-0.609-0.12-0.914c-1.418,0.902-2.872,1.704-4.419,2.363              c-0.337,0.144-0.317,0.713,0,0.863c1.19,0.565,2.261,1.325,3.443,1.901c0.04-0.305,0.08-0.609,0.119-0.914              c-1.017,0.175-1.912,0.699-2.929,0.873c-0.407,0.07-0.509,0.747-0.119,0.914c0.719,0.308,1.439,0.617,2.158,0.925              c0.04-0.305,0.08-0.609,0.12-0.914c-0.628,0.185-1.273,0.277-1.901,0.462c-0.617,0.182-0.354,1.147,0.266,0.964              c0.628-0.185,1.273-0.277,1.901-0.462c0.375-0.111,0.541-0.733,0.12-0.914c-0.719-0.308-1.439-0.617-2.158-0.925              c-0.04,0.305-0.08,0.609-0.119,0.914c1.017-0.175,1.912-0.699,2.929-0.873c0.421-0.072,0.493-0.731,0.119-0.914              c-1.182-0.577-2.253-1.336-3.443-1.901c0,0.288,0,0.576,0,0.863c1.547-0.659,3.001-1.461,4.419-2.363              c0.326-0.207,0.341-0.848-0.119-0.914c-1.665-0.239-3.214-0.778-4.911-0.789c0.084,0.311,0.168,0.621,0.252,0.932              c2.149-1.066,4.466-1.498,6.766-2.107c0.582-0.154,0.399-0.923-0.133-0.982c-3.084-0.343-6.193-0.227-9.219-1.01              C407.957,307.978,407.692,308.943,408.316,309.105L408.316,309.105z"/>
											</g>
										</g>
										<g>
											<g>
												<path style="fill:#AD7041;" d="M450.174,325.967c-2.655-1.651-4.716-3.987-7.092-5.986              c-0.426-0.358-1.07,0.087-0.785,0.606c1.146,2.088,2.424,4.061,3.135,6.355c0.279-0.162,0.557-0.324,0.836-0.487              c-1.14-1.2-2.573-1.907-3.854-2.929c-0.392-0.313-0.937-0.028-0.836,0.486c0.324,1.649,0.746,3.255,1.336,4.83              c0.205-0.205,0.41-0.41,0.615-0.615c-1.23-0.472-2.518-0.724-3.751-1.182c-0.408-0.152-0.8,0.383-0.565,0.734              c0.574,0.855,0.813,1.867,1.387,2.723c0.228-0.228,0.456-0.456,0.684-0.684c-0.719-0.308-1.439-0.617-2.158-0.925              c-0.444-0.19-0.94,0.209-0.684,0.684c0.311,0.576,0.665,1.119,0.976,1.696c0.306,0.568,1.17,0.063,0.863-0.505              c-0.311-0.576-0.665-1.119-0.976-1.696c-0.228,0.228-0.456,0.456-0.684,0.684c0.719,0.308,1.439,0.617,2.158,0.925              c0.412,0.177,0.996-0.22,0.684-0.684c-0.574-0.856-0.813-1.867-1.387-2.723c-0.188,0.245-0.376,0.49-0.565,0.734              c1.233,0.458,2.521,0.71,3.751,1.182c0.344,0.132,0.743-0.273,0.615-0.615c-0.59-1.575-1.012-3.181-1.336-4.83              c-0.279,0.162-0.557,0.324-0.836,0.487c1.273,1.016,2.718,1.735,3.854,2.929c0.342,0.36,0.984-0.009,0.836-0.487              c-0.736-2.374-2.048-4.429-3.236-6.594c-0.262,0.202-0.523,0.404-0.785,0.606c2.442,2.054,4.566,4.445,7.294,6.142              C450.218,327.172,450.72,326.307,450.174,325.967L450.174,325.967z"/>
											</g>
										</g>
									</g>
								</g>
							</g>
						</g>
						<g>
							<g>
								<g>
									<path style="fill:#FFFFFF;" d="M442.103,347.8c0,0,2.773-0.329,6.958-0.247c1.045,0.036,2.179,0.056,3.375,0.144           c1.198,0.059,2.459,0.165,3.759,0.319c1.305,0.118,2.639,0.355,4,0.551c1.353,0.249,2.727,0.514,4.092,0.814           c1.35,0.368,2.723,0.65,4.032,1.087c1.311,0.425,2.616,0.799,3.825,1.317c1.219,0.489,2.41,0.927,3.473,1.499           c1.066,0.56,2.122,0.988,3.005,1.562c0.902,0.537,1.716,1.048,2.435,1.5c0.703,0.478,1.275,0.957,1.765,1.318           c0.96,0.749,1.508,1.177,1.508,1.177s-0.589-0.37-1.62-1.017c-0.516-0.319-1.117-0.746-1.85-1.161           c-0.751-0.387-1.596-0.824-2.505-1.32c-0.895-0.522-1.965-0.894-3.038-1.393c-1.07-0.511-2.272-0.876-3.478-1.338           c-1.199-0.486-2.504-0.798-3.794-1.217c-1.291-0.421-2.65-0.684-3.983-1.039c-1.345-0.307-2.699-0.579-4.034-0.837           c-1.345-0.198-2.655-0.488-3.944-0.63c-1.285-0.172-2.526-0.352-3.71-0.467c-1.181-0.146-2.304-0.221-3.34-0.308           c-2.073-0.139-3.806-0.255-5.021-0.273C442.799,347.798,442.103,347.8,442.103,347.8z"/>
								</g>
								<g>
									<path style="fill:#FFFFFF;" d="M448.801,352.178c0,0,2.494,0.552,6.126,1.775c0.916,0.284,1.877,0.673,2.91,1.043           c1.024,0.392,2.129,0.749,3.223,1.236c1.099,0.475,2.235,0.967,3.389,1.466c1.16,0.488,2.307,1.049,3.447,1.628           c1.139,0.579,2.277,1.159,3.398,1.729c1.139,0.536,2.166,1.239,3.209,1.826c1.026,0.617,2.018,1.214,2.958,1.779           c0.95,0.549,1.803,1.14,2.584,1.696c1.576,1.09,2.852,2.048,3.76,2.694c0.896,0.663,1.407,1.042,1.407,1.042           s-0.552-0.321-1.517-0.882c-0.953-0.579-2.336-1.369-3.951-2.378c-0.805-0.51-1.682-1.051-2.658-1.546           c-0.959-0.521-1.97-1.07-3.016-1.638c-1.049-0.561-2.096-1.206-3.227-1.739c-1.118-0.556-2.254-1.121-3.39-1.686           c-1.126-0.585-2.26-1.153-3.407-1.648c-1.134-0.523-2.251-1.037-3.331-1.535c-1.079-0.502-2.149-0.926-3.147-1.368           c-1.006-0.423-1.943-0.862-2.836-1.192c-0.889-0.341-1.698-0.674-2.415-0.969c-0.717-0.298-1.354-0.516-1.874-0.717           C449.399,352.402,448.801,352.178,448.801,352.178z"/>
								</g>
								<g>
									<path style="fill:#FFFFFF;" d="M442.7,354.139c0,0,0.434,0.404,1.217,1.08c0.392,0.337,0.843,0.769,1.405,1.22           c0.556,0.457,1.183,0.971,1.849,1.55c0.665,0.581,1.437,1.151,2.225,1.786c0.802,0.618,1.614,1.309,2.51,1.954           c0.884,0.659,1.798,1.34,2.726,2.033c0.908,0.72,1.894,1.363,2.864,2.027c0.966,0.672,1.931,1.343,2.882,2.004           c0.952,0.658,1.937,1.233,2.865,1.829c0.93,0.595,1.828,1.171,2.68,1.716c0.837,0.574,1.684,1.02,2.453,1.453           c1.545,0.856,2.806,1.626,3.704,2.14c0.889,0.533,1.396,0.838,1.396,0.838s-0.539-0.241-1.483-0.664           c-0.935-0.442-2.291-1.038-3.887-1.82c-0.798-0.39-1.677-0.789-2.549-1.316c-0.883-0.508-1.814-1.044-2.777-1.598           c-0.948-0.579-1.973-1.109-2.934-1.772c-0.965-0.657-1.944-1.325-2.924-1.993c-0.972-0.679-1.959-1.338-2.867-2.072           c-0.918-0.721-1.821-1.431-2.695-2.117c-0.891-0.665-1.662-1.421-2.432-2.086c-0.755-0.684-1.495-1.299-2.13-1.923           c-0.645-0.612-1.22-1.189-1.73-1.699c-0.517-0.502-0.931-0.982-1.29-1.354C443.068,354.602,442.7,354.139,442.7,354.139z"/>
								</g>
							</g>
							<g>
								<g>
									<path style="fill:#FFFFFF;" d="M401.314,330.196c0,0-0.476-0.508-1.34-1.363c-0.847-0.871-2.12-2.053-3.643-3.465           c-0.774-0.694-1.598-1.46-2.515-2.219c-0.896-0.783-1.878-1.563-2.885-2.379c-0.988-0.84-2.097-1.595-3.164-2.438           c-1.103-0.794-2.23-1.593-3.376-2.361c-1.172-0.726-2.296-1.535-3.488-2.185c-1.19-0.652-2.312-1.387-3.488-1.926           c-1.164-0.56-2.254-1.185-3.36-1.613c-1.099-0.439-2.104-0.962-3.097-1.255c-0.984-0.321-1.881-0.636-2.678-0.917           c-0.805-0.249-1.528-0.393-2.114-0.55c-1.178-0.306-1.852-0.481-1.852-0.481s0.688,0.105,1.891,0.29           c0.599,0.109,1.34,0.196,2.17,0.38c0.822,0.213,1.753,0.456,2.762,0.743c1.023,0.249,2.059,0.724,3.198,1.115           c1.146,0.38,2.281,0.947,3.473,1.498c1.206,0.525,2.373,1.218,3.582,1.88c1.216,0.652,2.362,1.458,3.556,2.188           c1.155,0.788,2.29,1.606,3.399,2.42c1.077,0.856,2.164,1.664,3.145,2.533c1.004,0.84,1.946,1.685,2.811,2.516           c0.885,0.81,1.677,1.621,2.42,2.357C399.652,327.953,401.314,330.196,401.314,330.196z"/>
								</g>
								<g>
									<path style="fill:#FFFFFF;" d="M393.533,328.325c0,0-0.572-0.281-1.573-0.773c-0.503-0.24-1.099-0.555-1.808-0.872           c-0.707-0.319-1.504-0.679-2.362-1.092c-0.853-0.424-1.815-0.804-2.813-1.246c-1.007-0.423-2.049-0.91-3.154-1.351           c-1.103-0.445-2.244-0.904-3.402-1.371c-1.147-0.495-2.338-0.931-3.536-1.349c-1.19-0.439-2.38-0.878-3.552-1.31           c-1.163-0.458-2.351-0.777-3.479-1.156c-1.131-0.371-2.224-0.73-3.26-1.071c-1.029-0.37-2.025-0.638-2.948-0.874           c-1.842-0.483-3.366-0.947-4.44-1.243c-1.071-0.318-1.683-0.499-1.683-0.499s0.627,0.112,1.724,0.309           c1.093,0.218,2.666,0.489,4.539,0.888c0.94,0.187,1.956,0.402,3.007,0.717c1.057,0.296,2.171,0.609,3.324,0.932           c1.143,0.357,2.358,0.623,3.53,1.083c1.184,0.424,2.386,0.856,3.589,1.287c1.203,0.432,2.398,0.882,3.549,1.391           c1.155,0.497,2.291,0.987,3.391,1.46c1.104,0.462,2.122,1.021,3.11,1.498c0.978,0.498,1.921,0.93,2.755,1.402           C391.42,326.889,393.533,328.325,393.533,328.325z"/>
								</g>
								<g>
									<path style="fill:#FFFFFF;" d="M396.292,334.11c0,0-0.59,0.049-1.626,0.049c-0.517-0.006-1.15,0.022-1.87-0.01           c-0.721-0.021-1.536-0.044-2.423-0.093c-0.889-0.035-1.844-0.151-2.86-0.231c-1.013-0.104-2.091-0.147-3.186-0.338           c-1.099-0.165-2.235-0.336-3.389-0.509c-1.158-0.157-2.314-0.424-3.475-0.665c-1.158-0.255-2.316-0.51-3.456-0.761           c-1.142-0.244-2.23-0.626-3.302-0.919c-1.064-0.321-2.092-0.631-3.067-0.924c-0.981-0.273-1.874-0.639-2.706-0.952           c-1.664-0.625-3.028-1.203-3.991-1.58c-0.955-0.397-1.5-0.624-1.5-0.624s0.57,0.16,1.568,0.441           c0.99,0.301,2.415,0.69,4.098,1.227c0.843,0.263,1.748,0.573,2.74,0.789c0.982,0.246,2.017,0.505,3.087,0.773           c1.07,0.266,2.164,0.588,3.296,0.83c1.133,0.238,2.284,0.48,3.435,0.722c1.149,0.251,2.293,0.527,3.44,0.694           c1.141,0.201,2.263,0.398,3.349,0.59c1.084,0.21,2.144,0.326,3.144,0.486c1.002,0.137,1.947,0.309,2.826,0.394           c0.879,0.088,1.683,0.191,2.397,0.282c0.714,0.1,1.337,0.131,1.852,0.186C395.7,334.071,396.292,334.11,396.292,334.11z"/>
								</g>
							</g>
						</g>
						<g>
							<g>
								<g>
									<path style="fill:#3A130E;" d="M406.127,330.481c-0.958,2.284-0.543,4.636,0.928,5.252c1.47,0.617,3.439-0.735,4.397-3.019           c0.958-2.284,0.543-4.635-0.928-5.252C409.054,326.846,407.085,328.197,406.127,330.481z"/>
									<path style="fill:#231012;" d="M407.055,335.733c-1.47-0.617-1.886-2.968-0.928-5.252c0.259-0.618,0.596-1.16,0.973-1.62           l3.789,4.9C409.845,335.382,408.281,336.248,407.055,335.733z"/>
									<path style="fill:#EFF6FE;" d="M409.693,331.025c-0.301,0.716-0.246,1.422,0.121,1.576c0.367,0.154,0.909-0.302,1.21-1.018           c0.3-0.716,0.246-1.422-0.121-1.576C410.534,329.853,409.993,330.309,409.693,331.025z"/>
								</g>
								<g>
									<path style="fill:#3A130E;" d="M430.372,340.874c-0.958,2.284-0.543,4.636,0.928,5.252c1.47,0.617,3.439-0.735,4.397-3.019           c0.958-2.284,0.543-4.636-0.928-5.252C433.299,337.238,431.33,338.59,430.372,340.874z"/>
									<path style="fill:#231012;" d="M431.3,346.126c-1.47-0.617-1.886-2.968-0.928-5.252c0.259-0.618,0.596-1.16,0.973-1.62           l3.789,4.9C434.09,345.775,432.526,346.64,431.3,346.126z"/>
									<path style="fill:#EFF6FE;" d="M433.938,341.417c-0.301,0.717-0.246,1.422,0.121,1.577           c0.367,0.154,0.909-0.302,1.209-1.018c0.3-0.716,0.246-1.422-0.121-1.576C434.78,340.245,434.238,340.701,433.938,341.417z           "/>
								</g>
							</g>
							<g>
								<g>
									<path style="fill:#231012;" d="M420.538,337.682c3.189,1.338,5.311,3.428,4.393,4.543           c-0.918,1.115-4.419,1.596-6.854,1.324c-1.901-1.547-4.011-4.382-3.859-5.818           C414.371,336.295,417.35,336.345,420.538,337.682z"/>
									<path style="fill:none;stroke:#231012;stroke-linecap:round;stroke-linejoin:round;stroke-miterlimit:10;" d="           M410.591,341.196c0,0,0.405,2.739,2.712,3.725c2.766,1.182,4.775-1.372,4.775-1.372s-0.414,3.222,2.367,4.367           c2.32,0.955,4.557-0.675,4.557-0.675"/>
								</g>
							</g>
						</g>
					</g>
					<g>
						<g>
							<g>
								<path style="fill:#D6986E;" d="M440.919,375.325c-5.194,7.958-11.914,11.467-16.842,7.55          c-4.928-3.918-2.508-12.608,3.406-20.047c5.914-7.438,11.575-8.949,16.503-5.032c2.464,1.959,5.677,8.629,4.657,12.056          C447.624,373.28,446.867,366.213,440.919,375.325z"/>
							</g>
							<g>
								<g>
									<g>
										
											<path style="fill:none;stroke:#AD7041;stroke-width:0.75;stroke-linecap:round;stroke-linejoin:round;stroke-miterlimit:10;" d="            M428.48,367.712c0,0-6.323,7.72-6.424,12.498"/>
									</g>
									<g>
										
											<path style="fill:none;stroke:#AD7041;stroke-width:0.75;stroke-linecap:round;stroke-linejoin:round;stroke-miterlimit:10;" d="            M433.773,371.92c0,0-3.834,5.96-3.518,12.372"/>
									</g>
								</g>
							</g>
							<g>
								
									<path style="fill:none;stroke:#AD7041;stroke-width:0.75;stroke-linecap:round;stroke-linejoin:round;stroke-miterlimit:10;" d="          M427.484,362.828c5.914-7.438,11.575-8.949,16.503-5.032c0.775,0.616,1.624,1.698,2.392,2.998"/>
							</g>
						</g>
					</g>
				</g>
			</g>
		</g>
	</g>
</g>
</svg>